0
SECTION
2
HEADER
9
$INSUNITS
70
4
9
$ACADVER
1
AC1014
9
$HANDSEED
5
FFFF
0
ENDSEC
0
SECTION
2
TABLES
0
TABLE
2
VPORT
5
8
100
AcDbSymbolTable
0
ENDTAB
0
TABLE
2
LTYPE
5
5
100
AcDbSymbolTable
0
LTYPE
5
14
100
AcDbSymbolTableRecord
100
AcDbLinetypeTableRecord
2
BYBLOCK
70
0
0
LTYPE
5
15
100
AcDbSymbolTableRecord
100
AcDbLinetypeTableRecord
2
BYLAYER
70
0
0
LTYPE
5
16
100
AcDbSymbolTableRecord
100
AcDbLinetypeTableRecord
2
DASHED
70
0
3
Dashed __ __ __ __ __ __ __ __ __ __ __ __ __ _
72
65
73
2
40
0.75
49
0.5
74
0
49
-0.25
74
0
0
ENDTAB
0
TABLE
2
LAYER
5
2
100
AcDbSymbolTable
70
2
0
LAYER
5
50
100
AcDbSymbolTableRecord
100
AcDbLayerTableRecord
2
0
70
0
62
7
6
CONTINUOUS
0
ENDTAB
0
TABLE
2
STYLE
5
3
100
AcDbSymbolTable
70
1
0
STYLE
5
11
100
AcDbSymbolTableRecord
100
AcDbTextStyleTableRecord
2
STANDARD
70
0
0
ENDTAB
0
TABLE
2
VIEW
5
6
100
AcDbSymbolTable
70
0
0
ENDTAB
0
TABLE
2
UCS
5
7
100
AcDbSymbolTable
70
0
0
ENDTAB
0
TABLE
2
APPID
5
9
100
AcDbSymbolTable
70
2
0
APPID
5
12
100
AcDbSymbolTableRecord
100
AcDbRegAppTableRecord
2
ACAD
70
0
0
ENDTAB
0
TABLE
2
DIMSTYLE
5
A
100
AcDbSymbolTable
70
1
0
ENDTAB
0
TABLE
2
BLOCK_RECORD
5
1
100
AcDbSymbolTable
70
1
0
BLOCK_RECORD
5
1F
100
AcDbSymbolTableRecord
100
AcDbBlockTableRecord
2
*MODEL_SPACE
0
BLOCK_RECORD
5
1B
100
AcDbSymbolTableRecord
100
AcDbBlockTableRecord
2
*PAPER_SPACE
0
ENDTAB
0
ENDSEC
0
SECTION
2
BLOCKS
0
BLOCK
5
20
100
AcDbEntity
100
AcDbBlockBegin
2
*MODEL_SPACE
0
ENDBLK
5
21
100
AcDbEntity
100
AcDbBlockEnd
0
BLOCK
5
1C
100
AcDbEntity
100
AcDbBlockBegin
2
*PAPER_SPACE
0
ENDBLK
5
1D
100
AcDbEntity
100
AcDbBlockEnd
0
ENDSEC
0
SECTION
2
ENTITIES
0
POINT
5
100
100
AcDbEntity
8
0
100
AcDbPoint
10
-5
20
0
30
0
0
POINT
5
101
100
AcDbEntity
8
0
100
AcDbPoint
10
109.90000163912774
20
-89.900001341104485
30
0
0
POINT
5
102
100
AcDbEntity
8
0
100
AcDbPoint
10
110.00000163912773
20
-110.00000163912773
30
0
0
CIRCLE
5
103
100
AcDbEntity
8
0
100
AcDbCircle
10
-5
20
0
30
0
40
30
210
0
220
0
230
1
0
CIRCLE
5
104
100
AcDbEntity
8
0
100
AcDbCircle
10
60
20
0
30
0
40
30
210
0
220
0
230
1
0
CIRCLE
5
105
100
AcDbEntity
8
0
100
AcDbCircle
10
-70
20
0
30
0
40
30
210
0
220
0
230
1
0
CIRCLE
5
106
100
AcDbEntity
8
0
100
AcDbCircle
10
-135
20
0
30
0
40
30
210
0
220
0
230
1
0
CIRCLE
5
107
100
AcDbEntity
8
0
100
AcDbCircle
10
-68.750992263837645
20
22.705371083852874
30
0
40
3.9500000000000002
210
0
220
0
230
1
0
CIRCLE
5
108
100
AcDbEntity
8
0
100
AcDbCircle
10
-5
20
22.749999608844519
30
0
40
3.9500000000000002
210
0
220
0
230
1
0
CIRCLE
5
109
100
AcDbEntity
8
0
100
AcDbCircle
10
-135.00000149011612
20
22.750000182539228
30
0
40
3.9500000000000002
210
0
220
0
230
1
0
CIRCLE
5
110
100
AcDbEntity
8
0
100
AcDbCircle
10
59.962050333799937
20
22.749958852032638
30
0
40
3.9500000000000002
210
0
220
0
230
1
0
SPLINE
5
111
100
AcDbEntity
8
0
100
AcDbSpline
70
4
71
5
72
51
73
45
74
0
42
0.000000001
43
0.0000000001
44
0.0000000001
40
0
40
0
40
0
40
0
40
0
40
0
40
0.025000000000000001
40
0.050000000000000003
40
0.075000000000000011
40
0.10000000000000001
40
0.125
40
0.14999999999999999
40
0.17499999999999999
40
0.20000000000000001
40
0.22500000000000001
40
0.25
40
0.27500000000000002
40
0.29999999999999999
40
0.32500000000000001
40
0.35000000000000003
40
0.37500000000000011
40
0.40000000000000008
40
0.4250000000000001
40
0.45000000000000012
40
0.4750000000000002
40
0.50000000000000011
40
0.52500000000000013
40
0.55000000000000016
40
0.57500000000000018
40
0.6000000000000002
40
0.62500000000000022
40
0.65000000000000024
40
0.67500000000000016
40
0.70000000000000018
40
0.72500000000000031
40
0.75000000000000033
40
0.77500000000000036
40
0.80000000000000016
40
0.8250000000000004
40
0.85000000000000031
40
0.87500000000000033
40
0.90000000000000036
40
0.92500000000000038
40
0.9500000000000004
40
0.97500000000000042
40
1
40
1
40
1
40
1
40
1
40
1
41
1
41
1
41
1
41
1
41
1
41
1
41
1
41
1
41
1
41
1
41
1
41
1
41
1
41
1
41
1
41
1
41
1
41
1
41
1
41
1
41
1
41
1
41
1
41
1
41
1
41
1
41
1
41
1
41
1
41
1
41
1
41
1
41
1
41
1
41
1
41
1
41
1
41
1
41
1
41
1
41
1
41
1
41
1
41
1
41
1
10
-65.584948167792447
20
70.43350214072737
30
0
10
-65.739279057010123
20
70.063726620961774
30
0
10
-66.0455182624641
20
69.355713280396429
30
0
10
-66.497610035619772
20
68.388305967422639
30
0
10
-67.085844230526845
20
67.287851074297933
30
0
10
-67.800796224883811
20
66.224491763820595
30
0
10
-68.507210261529679
20
65.460970246353853
30
0
10
-69.229035469760902
20
64.970918162890698
30
0
10
-70.005947295607939
20
64.70920060869463
30
0
10
-70.8988990948408
20
64.606023016351642
30
0
10
-71.965808665159273
20
64.574505301695311
30
0
10
-73.232028313499995
20
64.519318112120402
30
0
10
-74.667057353589115
20
64.345206434936145
30
0
10
-76.147311531796262
20
63.96477201795102
30
0
10
-77.487476591981931
20
63.310673534679545
30
0
10
-78.496820891022296
20
62.348784917156728
30
0
10
-79.030685377001248
20
61.092745949826323
30
0
10
-79.036692429008014
20
59.614636901361678
30
0
10
-78.622173516597371
20
58.066323770091905
30
0
10
-78.026769909159384
20
56.655942430234347
30
0
10
-77.535142046153055
20
55.596427849129867
30
0
10
-77.407224915467964
20
55.061954172102716
30
0
10
-77.803019541482115
20
55.142256735993492
30
0
10
-78.704505713706595
20
55.794078819729727
30
0
10
-79.963526312359875
20
56.881083409950897
30
0
10
-81.355271894490429
20
58.217246744759819
30
0
10
-82.631166730696606
20
59.610538359254967
30
0
10
-83.567542518867398
20
60.902154181347683
30
0
10
-84.02687533418316
20
62.018311068278678
30
0
10
-83.965082911924384
20
62.968526747358773
30
0
10
-83.402087297628626
20
63.806695784971552
30
0
10
-82.404577265999151
20
64.605661677123592
30
0
10
-81.061800579434959
20
65.421207529905388
30
0
10
-79.473828122655817
20
66.282369824627168
30
0
10
-77.747266526520264
20
67.199995660148204
30
0
10
-75.988935470346746
20
68.17011284419992
30
0
10
-74.300516340625933
20
69.17929060273849
30
0
10
-72.772495965514537
20
70.2092435029071
30
0
10
-71.479021128556766
20
71.241384554121595
30
0
10
-70.470637977829455
20
72.262268568640962
30
0
10
-69.776238356524587
20
73.264195202210118
30
0
10
-69.482983015750591
20
74.047454068207728
30
0
10
-69.412300422434598
20
74.624071094487803
30
0
10
-69.431452492754573
20
75.003673108698749
30
0
10
-69.457596747937231
20
75.192271907448344
30
0
0
LINE
5
112
100
AcDbEntity
8
0
100
AcDbLine
10
-65
20
70
30
0
11
-57.000001296401024
21
70
31
0
0
LINE
5
113
100
AcDbEntity
8
0
100
AcDbLine
10
-57.000001296401024
20
70
30
0
11
-51.977450530121502
21
94.329287198462183
31
0
0
SPLINE
5
114
100
AcDbEntity
8
0
100
AcDbSpline
70
4
71
5
72
61
73
55
74
0
42
0.000000001
43
0.0000000001
44
0.0000000001
40
0
40
0
40
0
40
0
40
0
40
0
40
0.02
40
0.040000000000000001
40
0.059999999999999998
40
0.080000000000000002
40
0.10000000000000001
40
0.12
40
0.14000000000000001
40
0.16
40
0.17999999999999999
40
0.20000000000000001
40
0.22
40
0.23999999999999999
40
0.25999999999999995
40
0.28000000000000003
40
0.29999999999999999
40
0.32000000000000001
40
0.34000000000000002
40
0.36000000000000004
40
0.38000000000000012
40
0.40000000000000008
40
0.4200000000000001
40
0.44000000000000011
40
0.46000000000000008
40
0.4800000000000002
40
0.50000000000000011
40
0.52000000000000013
40
0.54000000000000015
40
0.56000000000000016
40
0.58000000000000018
40
0.6000000000000002
40
0.62000000000000022
40
0.64000000000000024
40
0.66000000000000025
40
0.68000000000000016
40
0.70000000000000018
40
0.72000000000000031
40
0.74000000000000032
40
0.76000000000000034
40
0.78000000000000025
40
0.80000000000000016
40
0.8200000000000004
40
0.8400000000000003
40
0.86000000000000032
40
0.88000000000000034
40
0.90000000000000036
40
0.92000000000000037
40
0.94000000000000039
40
0.96000000000000041
40
0.98000000000000043
40
1
40
1
40
1
40
1
40
1
40
1
41
1
41
1
41
1
41
1
41
1
41
1
41
1
41
1
41
1
41
1
41
1
41
1
41
1
41
1
41
1
41
1
41
1
41
1
41
1
41
1
41
1
41
1
41
1
41
1
41
1
41
1
41
1
41
1
41
1
41
1
41
1
41
1
41
1
41
1
41
1
41
1
41
1
41
1
41
1
41
1
41
1
41
1
41
1
41
1
41
1
41
1
41
1
41
1
41
1
41
1
41
1
41
1
41
1
41
1
41
1
10
-85.10733522269355
20
67.993682881274609
30
0
10
-85.382679671795657
20
68.317116855239831
30
0
10
-85.901573035952765
20
68.942070758398927
30
0
10
-86.584527135202535
20
69.813760212428448
30
0
10
-87.30423073658767
20
70.84443798403521
30
0
10
-87.890321516242182
20
71.918097022964901
30
0
10
-88.17792050470409
20
72.791629920312829
30
0
10
-88.198280846132334
20
73.495047888955483
30
0
10
-88.004016701597422
20
74.078580060369546
30
0
10
-87.675887794599475
20
74.619262219314521
30
0
10
-87.325189687555792
20
75.222578337761789
30
0
10
-87.060442129791582
20
75.983925027491182
30
0
10
-86.957465028940447
20
76.953904071665022
30
0
10
-87.027981025471703
20
78.101862768841244
30
0
10
-87.188911513871901
20
79.280372941621806
30
0
10
-87.306718777069946
20
80.289142808702593
30
0
10
-87.244335805548147
20
80.943025084367548
30
0
10
-86.902340171578658
20
81.130912652028115
30
0
10
-86.273923088480856
20
80.896679765826235
30
0
10
-85.454254227757801
20
80.447252072577854
30
0
10
-84.575256866322732
20
80.040954102043699
30
0
10
-83.761551052674861
20
79.910414839870441
30
0
10
-83.069994923606203
20
80.157550889524302
30
0
10
-82.460874269256493
20
80.704133561072794
30
0
10
-81.847413481169497
20
81.381429620020981
30
0
10
-81.132054056287629
20
81.996264089144759
30
0
10
-80.246128283253313
20
82.40314029961722
30
0
10
-79.192759125448703
20
82.582029464635539
30
0
10
-78.028502144762498
20
82.607721054284752
30
0
10
-76.837859273634535
20
82.606488209108861
30
0
10
-75.709751006142
20
82.716360364178612
30
0
10
-74.714789714328163
20
83.048507401596524
30
0
10
-73.878348406040033
20
83.641940924267729
30
0
10
-73.167477000461204
20
84.440466262259193
30
0
10
-72.519849672249222
20
85.337178884913584
30
0
10
-71.86473720882816
20
86.206233862178294
30
0
10
-71.147963045101719
20
86.940759570369451
30
0
10
-70.353157454041991
20
87.485398743634434
30
0
10
-69.530049151654495
20
87.878598008309709
30
0
10
-68.77012049996118
20
88.223258053811975
30
0
10
-68.170784323729492
20
88.642153911245046
30
0
10
-67.806556868452063
20
89.242144285622444
30
0
10
-67.690198716829869
20
90.066558285639786
30
0
10
-67.764034076491384
20
91.08247268907617
30
0
10
-67.927575109551967
20
92.209804371196768
30
0
10
-68.056377059519392
20
93.340240264585304
30
0
10
-68.023252219151061
20
94.359081188742365
30
0
10
-67.721119450287603
20
95.168466036051939
30
0
10
-67.076333387892333
20
95.701194863004488
30
0
10
-66.039915221271045
20
95.912452292550142
30
0
10
-64.583497121487653
20
95.776247629505121
30
0
10
-63.071457962628294
20
95.379271488310323
30
0
10
-61.740527938840799
20
94.917883687042121
30
0
10
-60.765784593048373
20
94.537601067164076
30
0
10
-60.256548883191513
20
94.329287198462183
30
0
0
SPLINE
5
115
100
AcDbEntity
8
0
100
AcDbSpline
70
4
71
5
72
26
73
20
74
0
42
0.000000001
43
0.0000000001
44
0.0000000001
40
0
40
0
40
0
40
0
40
0
40
0
40
0.066666666666666666
40
0.13333333333333333
40
0.20000000000000001
40
0.26666666666666666
40
0.33333333333333331
40
0.40000000000000002
40
0.46666666666666662
40
0.53333333333333333
40
0.59999999999999998
40
0.66666666666666663
40
0.73333333333333295
40
0.79999999999999982
40
0.8666666666666667
40
0.93333333333333324
40
1
40
1
40
1
40
1
40
1
40
1
41
1
41
1
41
1
41
1
41
1
41
1
41
1
41
1
41
1
41
1
41
1
41
1
41
1
41
1
41
1
41
1
41
1
41
1
41
1
41
1
10
-65.672025353166646
20
95.825825435356634
30
0
10
-65.68189614722202
20
96.02651558764336
30
0
10
-65.68237729452305
20
96.414803543237625
30
0
10
-65.6253153338168
20
96.957956606806874
30
0
10
-65.432845522186511
20
97.603047535125995
30
0
10
-64.996846149518163
20
98.277012881183737
30
0
10
-64.370489495783843
20
98.823354667895345
30
0
10
-63.570542380805072
20
99.256112332200132
30
0
10
-62.634416205276359
20
99.605322896160772
30
0
10
-61.618196604912313
20
99.915424872276105
30
0
10
-60.586533042620729
20
100.23743779763984
30
0
10
-59.605218730591183
20
100.6231169622184
30
0
10
-58.73344777142016
20
101.11884173101318
30
0
10
-58.014621446737486
20
101.7582341492581
30
0
10
-57.471383436904446
20
102.55820466518379
30
0
10
-57.113399953640936
20
103.52538747501674
30
0
10
-56.976179541943559
20
104.43297380544828
30
0
10
-56.956108816246605
20
105.1878487838848
30
0
10
-56.979278610759351
20
105.72382884603634
30
0
10
-57.000001296401024
20
106.00000157952309
30
0
0
SPLINE
5
116
100
AcDbEntity
8
0
100
AcDbSpline
70
4
71
5
72
21
73
15
74
0
42
0.000000001
43
0.0000000001
44
0.0000000001
40
0
40
0
40
0
40
0
40
0
40
0
40
0.10000000000000001
40
0.20000000000000001
40
0.30000000000000004
40
0.40000000000000002
40
0.5
40
0.59999999999999998
40
0.69999999999999996
40
0.79999999999999982
40
0.8999999999999998
40
1
40
1
40
1
40
1
40
1
40
1
41
1
41
1
41
1
41
1
41
1
41
1
41
1
41
1
41
1
41
1
41
1
41
1
41
1
41
1
41
1
10
-57.000001296401024
20
106.00000157952309
30
0
10
-56.932404358568505
20
105.65128137594955
30
0
10
-56.808262101392437
20
104.96344194261965
30
0
10
-56.655201405708304
20
103.96048383291971
30
0
10
-56.518535397553094
20
102.68177233412324
30
0
10
-56.468168602042972
20
101.188036245007
30
0
10
-56.550647144481381
20
99.80970810385088
30
0
10
-56.77969629437861
20
98.558711589831844
30
0
10
-57.167062708912788
20
97.445251484100623
30
0
10
-57.714351962046223
20
96.47072261164125
30
0
10
-58.412874702605293
20
95.627576192769169
30
0
10
-59.084396276654154
20
95.050968899296208
30
0
10
-59.647658247633373
20
94.670308344896327
30
0
10
-60.04923989951088
20
94.439185861330927
30
0
10
-60.256548883191513
20
94.329287198462183
30
0
0
SPLINE
5
117
100
AcDbEntity
8
0
100
AcDbSpline
70
4
71
5
72
26
73
20
74
0
42
0.000000001
43
0.0000000001
44
0.0000000001
40
0
40
0
40
0
40
0
40
0
40
0
40
0.066666666666666666
40
0.13333333333333333
40
0.20000000000000001
40
0.26666666666666666
40
0.33333333333333331
40
0.40000000000000002
40
0.46666666666666662
40
0.53333333333333333
40
0.59999999999999998
40
0.66666666666666663
40
0.73333333333333295
40
0.79999999999999982
40
0.8666666666666667
40
0.93333333333333324
40
1
40
1
40
1
40
1
40
1
40
1
41
1
41
1
41
1
41
1
41
1
41
1
41
1
41
1
41
1
41
1
41
1
41
1
41
1
41
1
41
1
41
1
41
1
41
1
41
1
41
1
10
-66.000001430511489
20
91.000001356005683
30
0
10
-65.976607863121103
20
91.21592894093196
30
0
10
-65.919850818664571
20
91.628621693141696
30
0
10
-65.804806164495417
20
92.190174693767432
30
0
10
-65.591154654475361
20
92.823094163085287
30
0
10
-65.222197836668698
20
93.417886548992172
30
0
10
-64.751489929662242
20
93.815044884012451
30
0
10
-64.183241968908519
20
94.019502774809723
30
0
10
-63.528059047674788
20
94.046374714473004
30
0
10
-62.806846906043098
20
93.927652276612662
30
0
10
-62.048353326171942
20
93.708222576732965
30
0
10
-61.284812847539044
20
93.438752744819013
30
0
10
-60.548414111796411
20
93.170074764199157
30
0
10
-59.867685124504355
20
92.947492247540623
30
0
10
-59.263344172007962
20
92.804422997291454
30
0
10
-58.745301208451302
20
92.75780491048387
30
0
10
-58.402591763052037
20
92.802974507375566
30
0
10
-58.185770253551041
20
92.883482143856483
30
0
10
-58.058966972386806
20
92.957732066596165
30
0
10
-58.000001311302185
20
93.000001385807991
30
0
0
SPLINE
5
118
100
AcDbEntity
8
0
100
AcDbSpline
70
4
71
5
72
21
73
15
74
0
42
0.000000001
43
0.0000000001
44
0.0000000001
40
0
40
0
40
0
40
0
40
0
40
0
40
0.10000000000000001
40
0.20000000000000001
40
0.30000000000000004
40
0.40000000000000002
40
0.5
40
0.59999999999999998
40
0.69999999999999996
40
0.79999999999999982
40
0.8999999999999998
40
1
40
1
40
1
40
1
40
1
40
1
41
1
41
1
41
1
41
1
41
1
41
1
41
1
41
1
41
1
41
1
41
1
41
1
41
1
41
1
41
1
10
-60.000001341104507
20
93.000001385807991
30
0
10
-60.189345157047541
20
92.999155732390918
30
0
10
-60.562049962895259
20
92.990635169069151
30
0
10
-61.103159564594506
20
92.957367548898787
30
0
10
-61.788145741918399
20
92.871354480140013
30
0
10
-62.579365029997064
20
92.689626824938941
30
0
10
-63.299520579520049
20
92.426781568338185
30
0
10
-63.942427360350962
20
92.075758642565603
30
0
10
-64.504033455725292
20
91.631932879055867
30
0
10
-64.986632900229409
20
91.097922864826742
30
0
10
-65.395811662139494
20
90.480104852490285
30
0
10
-65.669044285457332
20
89.924084697814791
30
0
10
-65.845438114213636
20
89.47450252261099
30
0
10
-65.950559437819493
20
89.160541650411588
30
0
10
-66.000001430511489
20
89.000001326203346
30
0
0
SPLINE
5
119
100
AcDbEntity
8
0
100
AcDbSpline
70
4
71
5
72
41
73
35
74
0
42
0.000000001
43
0.0000000001
44
0.0000000001
40
0
40
0
40
0
40
0
40
0
40
0
40
0.033333333333333333
40
0.066666666666666666
40
0.10000000000000001
40
0.13333333333333333
40
0.16666666666666666
40
0.20000000000000001
40
0.23333333333333331
40
0.26666666666666666
40
0.29999999999999999
40
0.33333333333333331
40
0.36666666666666647
40
0.40000000000000002
40
0.43333333333333329
40
0.46666666666666662
40
0.5
40
0.53333333333333333
40
0.56666666666666665
40
0.59999999999999998
40
0.6333333333333333
40
0.66666666666666663
40
0.69999999999999996
40
0.73333333333333295
40
0.76666666666666661
40
0.79999999999999982
40
0.83333333333333315
40
0.8666666666666667
40
0.8999999999999998
40
0.93333333333333324
40
0.96666666666666645
40
1
40
1
40
1
40
1
40
1
40
1
41
1
41
1
41
1
41
1
41
1
41
1
41
1
41
1
41
1
41
1
41
1
41
1
41
1
41
1
41
1
41
1
41
1
41
1
41
1
41
1
41
1
41
1
41
1
41
1
41
1
41
1
41
1
41
1
41
1
41
1
41
1
41
1
41
1
41
1
41
1
10
-68.000001460313797
20
94.000001400709152
30
0
10
-68.164624279432431
20
94.159963749937404
30
0
10
-68.477107901167528
20
94.452589789087384
30
0
10
-68.895546329555728
20
94.809631635493488
30
0
10
-69.352716340910945
20
95.121607059043981
30
0
10
-69.758587384231703
20
95.240769370696739
30
0
10
-70.007852729256655
20
95.100338709330131
30
0
10
-70.11967187912802
20
94.724752019697718
30
0
10
-70.128102002551017
20
94.157925067285916
30
0
10
-70.077114886990373
20
93.45691059696469
30
0
10
-70.013964865068274
20
92.6834313162624
30
0
10
-69.983319640156367
20
91.896400802823365
30
0
10
-70.02075908108074
20
91.143667942825871
30
0
10
-70.147389475695746
20
90.455131696009943
30
0
10
-70.372504823123293
20
89.845674007743511
30
0
10
-70.695382484477705
20
89.317014802668552
30
0
10
-71.107344557285245
20
88.859957192685798
30
0
10
-71.593539397041297
20
88.456133142965072
30
0
10
-72.135020706848948
20
88.080591884674448
30
0
10
-72.711430025648951
20
87.706323418265555
30
0
10
-73.303638741576293
20
87.308553891620292
30
0
10
-73.896209433163136
20
86.86880912181698
30
0
10
-74.480407841819556
20
86.379900256656043
30
0
10
-75.055525509118723
20
85.848032445639092
30
0
10
-75.626274889174553
20
85.288176736116114
30
0
10
-76.201045460662939
20
84.720926683675657
30
0
10
-76.78978667020516
20
84.168701963370779
30
0
10
-77.402212159464341
20
83.652528395912341
30
0
10
-78.045497584470809
20
83.187876669637305
30
0
10
-78.724086285597153
20
82.784434866052749
30
0
10
-79.440500202471185
20
82.447759302060405
30
0
10
-80.044750806820346
20
82.233785322352375
30
0
10
-80.515542885533549
20
82.104704846113066
30
0
10
-80.837213795563684
20
82.032580801099172
30
0
10
-81.000001654028907
20
82.000001221895232
30
0
0
SPLINE
5
120
100
AcDbEntity
8
0
100
AcDbSpline
70
4
71
5
72
26
73
20
74
0
42
0.000000001
43
0.0000000001
44
0.0000000001
40
0
40
0
40
0
40
0
40
0
40
0
40
0.066666666666666666
40
0.13333333333333333
40
0.20000000000000001
40
0.26666666666666666
40
0.33333333333333331
40
0.40000000000000002
40
0.46666666666666662
40
0.53333333333333333
40
0.59999999999999998
40
0.66666666666666663
40
0.73333333333333295
40
0.79999999999999982
40
0.8666666666666667
40
0.93333333333333324
40
1
40
1
40
1
40
1
40
1
40
1
41
1
41
1
41
1
41
1
41
1
41
1
41
1
41
1
41
1
41
1
41
1
41
1
41
1
41
1
41
1
41
1
41
1
41
1
41
1
41
1
10
-69.214396732655047
20
95.000001415610313
30
0
10
-69.24043646159268
20
95.255058979610467
30
0
10
-69.277092810076141
20
95.746520808016584
30
0
10
-69.285807812259961
20
96.427753318637286
30
0
10
-69.204217665669034
20
97.223332030373115
30
0
10
-68.944506002572467
20
98.027682663572321
30
0
10
-68.527139335091292
20
98.643924635531022
30
0
10
-67.957992240489844
20
99.08303535831098
30
0
10
-67.253120988454285
20
99.37103385812064
30
0
10
-66.44234056394707
20
99.553841893008808
30
0
10
-65.562779017366566
20
99.687882430652124
30
0
10
-64.653709292703482
20
99.83234450769281
30
0
10
-63.751574367768306
20
100.04167556631458
30
0
10
-62.884311178552075
20
100.35674555232114
30
0
10
-62.068079219134411
20
100.79982603711045
30
0
10
-61.311253877895425
20
101.38131442465549
30
0
10
-60.755642476316503
20
101.95916318699872
30
0
10
-60.366991116080577
20
102.45534210140622
30
0
10
-60.120268196701609
20
102.81383109159913
30
0
10
-60.000001341104507
20
103.0000015348196
30
0
0
LINE
5
121
100
AcDbEntity
8
0
100
AcDbLine
10
-47.000001221895225
20
70.000001043081284
30
0
11
-41.977450670949963
21
94.329287198462183
31
0
0
SPLINE
5
122
100
AcDbEntity
8
0
100
AcDbSpline
70
4
71
5
72
46
73
40
74
0
42
0.000000001
43
0.0000000001
44
0.0000000001
40
0
40
0
40
0
40
0
40
0
40
0
40
0.028571428571428567
40
0.057142857142857134
40
0.085714285714285715
40
0.11428571428571427
40
0.14285714285714285
40
0.17142857142857146
40
0.20000000000000001
40
0.22857142857142851
40
0.25714285714285717
40
0.2857142857142857
40
0.31428571428571433
40
0.34285714285714292
40
0.3714285714285715
40
0.40000000000000008
40
0.42857142857142871
40
0.4571428571428573
40
0.48571428571428582
40
0.51428571428571435
40
0.54285714285714293
40
0.57142857142857151
40
0.60000000000000009
40
0.62857142857142867
40
0.65714285714285725
40
0.68571428571428583
40
0.71428571428571441
40
0.74285714285714299
40
0.77142857142857135
40
0.80000000000000016
40
0.82857142857142863
40
0.85714285714285732
40
0.8857142857142859
40
0.91428571428571459
40
0.94285714285714284
40
0.97142857142857164
40
1
40
1
40
1
40
1
40
1
40
1
41
1
41
1
41
1
41
1
41
1
41
1
41
1
41
1
41
1
41
1
41
1
41
1
41
1
41
1
41
1
41
1
41
1
41
1
41
1
41
1
41
1
41
1
41
1
41
1
41
1
41
1
41
1
41
1
41
1
41
1
41
1
41
1
41
1
41
1
41
1
41
1
41
1
41
1
41
1
41
1
10
-41.977450670949963
20
94.329287198462183
30
0
10
-41.872895590724269
20
94.574675433883584
30
0
10
-41.654044338982189
20
95.024205522836183
30
0
10
-41.296542929754956
20
95.574756625758127
30
0
10
-40.761358456476408
20
96.061049760693237
30
0
10
-39.997742416069961
20
96.268049037357727
30
0
10
-39.149166712334633
20
96.114627654534047
30
0
10
-38.235256221064375
20
95.682961259513718
30
0
10
-37.290271870408134
20
95.116257044172627
30
0
10
-36.354842779360816
20
94.587853765849502
30
0
10
-35.465409575527794
20
94.261556613672042
30
0
10
-34.644784648249825
20
94.256142036766505
30
0
10
-33.891436239397301
20
94.605381697264704
30
0
10
-33.171296086018948
20
95.226684634367714
30
0
10
-32.433866219006866
20
95.972774291650126
30
0
10
-31.627022070695325
20
96.678620201595038
30
0
10
-30.711059589436967
20
97.206319315044453
30
0
10
-29.676007500114466
20
97.499608184309523
30
0
10
-28.548055648188004
20
97.605695726145441
30
0
10
-27.372898393510503
20
97.627722051921637
30
0
10
-26.204177037710036
20
97.692506440282685
30
0
10
-25.089687015136239
20
97.911608989699502
30
0
10
-24.059151619241209
20
98.347020712903799
30
0
10
-23.109580872087143
20
98.969843669429622
30
0
10
-22.214225481624897
20
99.687104965800941
30
0
10
-21.333636816901809
20
100.37460650701659
30
0
10
-20.426322946189078
20
100.90876521588905
30
0
10
-19.458558496252536
20
101.19574836950356
30
0
10
-18.417033052555002
20
101.20955985488216
30
0
10
-17.309740694416682
20
100.99332798939216
30
0
10
-16.158037801221532
20
100.63298520561865
30
0
10
-14.991297516006966
20
100.23905469515596
30
0
10
-13.840688020706803
20
99.925745801234598
30
0
10
-12.733034540500201
20
99.790181192823496
30
0
10
-11.685554958217931
20
99.894684090707685
30
0
10
-10.708410005754363
20
100.27593771351746
30
0
10
-9.9867949325409793
20
100.81613080422102
30
0
10
-9.4800231910190025
20
101.35581675488916
30
0
10
-9.1574605941092102
20
101.77532089421852
30
0
10
-9.0000006556510908
20
102.00000151991844
30
0
0
SPLINE
5
123
100
AcDbEntity
8
0
100
AcDbSpline
70
4
71
5
72
31
73
25
74
0
42
0.000000001
43
0.0000000001
44
0.0000000001
40
0
40
0
40
0
40
0
40
0
40
0
40
0.050000000000000003
40
0.10000000000000001
40
0.15000000000000002
40
0.20000000000000001
40
0.25
40
0.29999999999999999
40
0.34999999999999998
40
0.40000000000000002
40
0.45000000000000001
40
0.5
40
0.54999999999999993
40
0.59999999999999998
40
0.65000000000000002
40
0.70000000000000007
40
0.75000000000000022
40
0.80000000000000016
40
0.8500000000000002
40
0.90000000000000024
40
0.9500000000000004
40
1
40
1
40
1
40
1
40
1
40
1
41
1
41
1
41
1
41
1
41
1
41
1
41
1
41
1
41
1
41
1
41
1
41
1
41
1
41
1
41
1
41
1
41
1
41
1
41
1
41
1
41
1
41
1
41
1
41
1
41
1
10
-38.000001087784774
20
62.000000923872001
30
0
10
-38.149362017577168
20
62.230240834593651
30
0
10
-38.412018095162672
20
62.66909816370125
30
0
10
-38.697797266332437
20
63.262512739159114
30
0
10
-38.861608718566735
20
63.923493895616673
30
0
10
-38.711375398375829
20
64.536051215316036
30
0
10
-38.237790092477148
20
64.951309701373788
30
0
10
-37.509499203815359
20
65.205366694460395
30
0
10
-36.654131859437449
20
65.36581371107053
30
0
10
-35.8325755014381
20
65.518724259504381
30
0
10
-35.193466307288581
20
65.74544531777147
30
0
10
-34.838157450259466
20
66.10475872320842
30
0
10
-34.771207897215433
20
66.607834967336942
30
0
10
-34.886830512724096
20
67.211024030882143
30
0
10
-35.027140890065354
20
67.844120054801607
30
0
10
-35.020762187854828
20
68.428964894084899
30
0
10
-34.736272844925608
20
68.905189718762216
30
0
10
-34.085987297590925
20
69.232272963604387
30
0
10
-33.013755721460164
20
69.383995837122853
30
0
10
-31.488776666258715
20
69.345718338014677
30
0
10
-29.497821133649786
20
69.110879079988791
30
0
10
-27.530748451981935
20
68.764731368908784
30
0
10
-25.846354957208266
20
68.416636197831252
30
0
10
-24.630877119794299
20
68.145407057389619
30
0
10
-24.00000087916851
20
68.000001013278961
30
0
0
SPLINE
5
124
100
AcDbEntity
8
0
100
AcDbSpline
70
4
71
5
72
26
73
20
74
0
42
0.000000001
43
0.0000000001
44
0.0000000001
40
0
40
0
40
0
40
0
40
0
40
0
40
0.066666666666666666
40
0.13333333333333333
40
0.20000000000000001
40
0.26666666666666666
40
0.33333333333333331
40
0.40000000000000002
40
0.46666666666666662
40
0.53333333333333333
40
0.59999999999999998
40
0.66666666666666663
40
0.73333333333333295
40
0.79999999999999982
40
0.8666666666666667
40
0.93333333333333324
40
1
40
1
40
1
40
1
40
1
40
1
41
1
41
1
41
1
41
1
41
1
41
1
41
1
41
1
41
1
41
1
41
1
41
1
41
1
41
1
41
1
41
1
41
1
41
1
41
1
41
1
10
-24.00000087916851
20
68.000001013278961
30
0
10
-23.687986420307752
20
68.207386662194267
30
0
10
-23.103394410212555
20
68.633150708968287
30
0
10
-22.344820493091326
20
69.304775886837362
30
0
10
-21.571708011084528
20
70.266706430054256
30
0
10
-21.006269307710927
20
71.581085913912759
30
0
10
-20.834139398693825
20
73.005927632025816
30
0
10
-21.026034889405111
20
74.53431189169315
30
0
10
-21.514946227451048
20
76.149709755626859
30
0
10
-22.192458173600546
20
77.82498645127923
30
0
10
-22.929614257637013
20
79.527743563347855
30
0
10
-23.590978031728138
20
81.223874188085063
30
0
10
-24.051062135451492
20
82.881696207257548
30
0
10
-24.209354918028726
20
84.475698964901099
30
0
10
-24.008949829389209
20
85.991150375560622
30
0
10
-23.425025909964781
20
87.421323945492091
30
0
10
-22.646899658022303
20
88.495844219461787
30
0
10
-21.89026012558308
20
89.26291166918972
30
0
10
-21.309479606496847
20
89.757159805015903
30
0
10
-21.000000834465027
20
90.000001341104507
30
0
0
LINE
5
125
100
AcDbEntity
8
0
100
AcDbLine
10
-38.000001087784774
20
62.000000923872001
30
0
11
-36.393912137270249
21
61.707508581994546
31
0
0
SPLINE
5
126
100
AcDbEntity
8
0
100
AcDbSpline
70
4
71
5
72
21
73
15
74
0
42
0.000000001
43
0.0000000001
44
0.0000000001
40
0
40
0
40
0
40
0
40
0
40
0
40
0.10000000000000001
40
0.20000000000000001
40
0.30000000000000004
40
0.40000000000000002
40
0.5
40
0.59999999999999998
40
0.69999999999999996
40
0.79999999999999982
40
0.8999999999999998
40
1
40
1
40
1
40
1
40
1
40
1
41
1
41
1
41
1
41
1
41
1
41
1
41
1
41
1
41
1
41
1
41
1
41
1
41
1
41
1
41
1
10
-39.000001102685921
20
59.00000087916851
30
0
10
-38.916720069668862
20
59.047259660214657
30
0
10
-38.755630511961741
20
59.142879075876962
30
0
10
-38.53041295375553
20
59.289613609752152
30
0
10
-38.263503064119249
20
59.491980536291763
30
0
10
-37.989321823668725
20
59.756910293617594
30
0
10
-37.780088359299491
20
60.034916858609236
30
0
10
-37.641387440280035
20
60.327124687830604
30
0
10
-37.576770556454377
20
60.634248850403552
30
0
10
-37.583979141416897
20
60.955834598829043
30
0
10
-37.657867918101466
20
61.290845965398553
30
0
10
-37.766087251736863
20
61.568742694416223
30
0
10
-37.873140010528957
20
61.782377671809279
30
0
10
-37.955827533777601
20
61.927079999792092
30
0
10
-38.000001087784774
20
62.000000923872001
30
0
0
SPLINE
5
127
100
AcDbEntity
8
0
100
AcDbSpline
70
4
71
5
72
26
73
20
74
0
42
0.000000001
43
0.0000000001
44
0.0000000001
40
0
40
0
40
0
40
0
40
0
40
0
40
0.066666666666666666
40
0.13333333333333333
40
0.20000000000000001
40
0.26666666666666666
40
0.33333333333333331
40
0.40000000000000002
40
0.46666666666666662
40
0.53333333333333333
40
0.59999999999999998
40
0.66666666666666663
40
0.73333333333333295
40
0.79999999999999982
40
0.8666666666666667
40
0.93333333333333324
40
1
40
1
40
1
40
1
40
1
40
1
41
1
41
1
41
1
41
1
41
1
41
1
41
1
41
1
41
1
41
1
41
1
41
1
41
1
41
1
41
1
41
1
41
1
41
1
41
1
41
1
10
-47.000001221895225
20
70.000001043081284
30
0
10
-46.756256595023601
20
69.948490212238767
30
0
10
-46.278377419472534
20
69.855690288662601
30
0
10
-45.590388358481036
20
69.747155001217791
30
0
10
-44.731152878217408
20
69.664221783777151
30
0
10
-43.754712804401706
20
69.663999882780871
30
0
10
-42.873884444046304
20
69.763985766328815
30
0
10
-42.080882286217204
20
69.953626147581076
30
0
10
-41.359142096143287
20
70.211497654833707
30
0
10
-40.678957014736106
20
70.500125806695578
30
0
10
-40.002674793484346
20
70.772404815816984
30
0
10
-39.291345217800938
20
70.979843442924704
30
0
10
-38.5101007919286
20
71.079279640428794
30
0
10
-37.635742681547313
20
71.042463130044666
30
0
10
-36.656423486242929
20
70.855536147235526
30
0
10
-35.567343206361969
20
70.513427208181625
30
0
10
-34.608055120226396
20
70.115945370907809
30
0
10
-33.839767338908963
20
69.749293666858605
30
0
10
-33.30603571879125
20
69.474619538039889
30
0
10
-33.033784842024438
20
69.32972239388333
30
0
0
LINE
5
128
100
AcDbEntity
8
0
100
AcDbLine
10
-34.000001028180115
20
62.000000923872001
30
0
11
-36.000001057982452
21
63.000000938773155
31
0
0
SPLINE
5
129
100
AcDbEntity
8
0
100
AcDbSpline
70
4
71
5
72
26
73
20
74
0
42
0.000000001
43
0.0000000001
44
0.0000000001
40
0
40
0
40
0
40
0
40
0
40
0
40
0.066666666666666666
40
0.13333333333333333
40
0.20000000000000001
40
0.26666666666666666
40
0.33333333333333331
40
0.40000000000000002
40
0.46666666666666662
40
0.53333333333333333
40
0.59999999999999998
40
0.66666666666666663
40
0.73333333333333295
40
0.79999999999999982
40
0.8666666666666667
40
0.93333333333333324
40
1
40
1
40
1
40
1
40
1
40
1
41
1
41
1
41
1
41
1
41
1
41
1
41
1
41
1
41
1
41
1
41
1
41
1
41
1
41
1
41
1
41
1
41
1
41
1
41
1
41
1
10
-36.000001057982452
20
63.000000938773155
30
0
10
-35.95748952903427
20
63.188458127994316
30
0
10
-35.865207039983602
20
63.543597628493487
30
0
10
-35.705005313374436
20
64.01098316284407
30
0
10
-35.447527714568743
20
64.502558545239609
30
0
10
-35.052033027340549
20
64.89576501098945
30
0
10
-34.58465773818422
20
65.071936333500105
30
0
10
-34.0517832926691
20
65.048050751525665
30
0
10
-33.466829364579446
20
64.86069944243124
30
0
10
-32.853449325538399
20
64.575282034245092
30
0
10
-32.24151306402679
20
64.273046923297102
30
0
10
-31.662909947062939
20
64.037612932672999
30
0
10
-31.147280565154038
20
63.941075810836722
30
0
10
-30.718230644281697
20
64.031972671037551
30
0
10
-30.387576231517315
20
64.316265292936279
30
0
10
-30.156717161056097
20
64.764536289425251
30
0
10
-30.048890721242877
20
65.22001893770306
30
0
10
-30.008889800161853
20
65.598071054937108
30
0
10
-30.000000968575481
20
65.863750760397238
30
0
10
-30.000000968575481
20
66.000000983476639
30
0
0
SPLINE
5
130
100
AcDbEntity
8
0
100
AcDbSpline
70
4
71
5
72
21
73
15
74
0
42
0.000000001
43
0.0000000001
44
0.0000000001
40
0
40
0
40
0
40
0
40
0
40
0
40
0.10000000000000001
40
0.20000000000000001
40
0.30000000000000004
40
0.40000000000000002
40
0.5
40
0.59999999999999998
40
0.69999999999999996
40
0.79999999999999982
40
0.8999999999999998
40
1
40
1
40
1
40
1
40
1
40
1
41
1
41
1
41
1
41
1
41
1
41
1
41
1
41
1
41
1
41
1
41
1
41
1
41
1
41
1
41
1
10
-36.000001057982452
20
63.000000938773155
30
0
10
-36.03952242743965
20
62.950834806736893
30
0
10
-36.114029959358689
20
62.85129376299853
30
0
10
-36.212185349518094
20
62.698355781970108
30
0
10
-36.315402190988209
20
62.487066983754332
30
0
10
-36.395321348825028
20
62.209868739663975
30
0
10
-36.422224943521577
20
61.918540129563063
30
0
10
-36.392527873318883
20
61.612125607618751
30
0
10
-36.30564322483152
20
61.290468742382984
30
0
10
-36.165159178829924
20
60.954525900332044
30
0
10
-35.975720454607092
20
60.605535049705388
30
0
10
-35.788501518043454
20
60.316835702458476
30
0
10
-35.629344556345728
20
60.095315639138825
30
0
10
-35.515046853810468
20
59.945451880487141
30
0
10
-35.455849606333203
20
59.869974037173606
30
0
0
SPLINE
5
131
100
AcDbEntity
8
0
100
AcDbSpline
70
4
71
5
72
21
73
15
74
0
42
0.000000001
43
0.0000000001
44
0.0000000001
40
0
40
0
40
0
40
0
40
0
40
0
40
0.10000000000000001
40
0.20000000000000001
40
0.30000000000000004
40
0.40000000000000002
40
0.5
40
0.59999999999999998
40
0.69999999999999996
40
0.79999999999999982
40
0.8999999999999998
40
1
40
1
40
1
40
1
40
1
40
1
41
1
41
1
41
1
41
1
41
1
41
1
41
1
41
1
41
1
41
1
41
1
41
1
41
1
41
1
41
1
10
-35.455849606333203
20
59.869974037173606
30
0
10
-35.46281126259548
20
59.939695106303041
30
0
10
-35.473593068415603
20
60.07677575421809
30
0
10
-35.480341590649488
20
60.275312505841505
30
0
10
-35.470178271301798
20
60.525624468147221
30
0
10
-35.423363133417283
20
60.812872976334873
30
0
10
-35.339357507976672
20
61.072165161176777
30
0
10
-35.215077486171971
20
61.301182829033429
30
0
10
-35.0487511675517
20
61.498594031195459
30
0
10
-34.841930750636571
20
61.665565565050862
30
0
10
-34.597625785577932
20
61.804359728370883
30
0
10
-34.374631006685178
20
61.894684944285252
30
0
10
-34.192869103850683
20
61.951517224056474
30
0
10
-34.065348140763014
20
61.984634810952606
30
0
10
-34.000001028180115
20
62.000000923872001
30
0
0
SPLINE
5
132
100
AcDbEntity
8
0
100
AcDbSpline
70
4
71
5
72
26
73
20
74
0
42
0.000000001
43
0.0000000001
44
0.0000000001
40
0
40
0
40
0
40
0
40
0
40
0
40
0.066666666666666666
40
0.13333333333333333
40
0.20000000000000001
40
0.26666666666666666
40
0.33333333333333331
40
0.40000000000000002
40
0.46666666666666662
40
0.53333333333333333
40
0.59999999999999998
40
0.66666666666666663
40
0.73333333333333295
40
0.79999999999999982
40
0.8666666666666667
40
0.93333333333333324
40
1
40
1
40
1
40
1
40
1
40
1
41
1
41
1
41
1
41
1
41
1
41
1
41
1
41
1
41
1
41
1
41
1
41
1
41
1
41
1
41
1
41
1
41
1
41
1
41
1
41
1
10
-35.528035115279067
20
65.650462074041158
30
0
10
-35.599510675409874
20
65.702134790626459
30
0
10
-35.74194614328885
20
65.800478844124981
30
0
10
-35.954052305802044
20
65.932991023107007
30
0
10
-36.23374469371516
20
66.079445934726834
30
0
10
-36.577647723757366
20
66.210877270259061
30
0
10
-36.914523356345271
20
66.289171978946968
30
0
10
-37.241884835187726
20
66.313245774691438
30
0
10
-37.555785333356951
20
66.283073876383
30
0
10
-37.85028669307161
20
66.200867776294032
30
0
10
-38.117948361097461
20
66.070782855950782
30
0
10
-38.350908651995439
20
65.897840945997828
30
0
10
-38.541882176204545
20
65.687275525039311
30
0
10
-38.685235483729933
20
65.443883910375064
30
0
10
-38.778417527130316
20
65.171468480841583
30
0
10
-38.821048569043057
20
64.872795492218657
30
0
10
-38.815280083454688
20
64.61430058193362
30
0
10
-38.788968982038455
20
64.409859429227311
30
0
10
-38.761727693644936
20
64.268901652420581
30
0
10
-38.745681915475572
20
64.197256833868508
30
0
0
LINE
5
133
100
AcDbEntity
8
0
100
AcDbLine
10
-36.382997233697047
20
66.130154608760364
30
0
11
-35.396840166657526
21
66.632641873526367
31
0
0
ARC
5
134
100
AcDbEntity
8
0
100
AcDbCircle
10
-35.164144497143816
20
66.175964669841846
30
0
40
0.51254399125885042
210
0
220
-0
230
1
100
AcDbArc
50
47.278543186131458
51
117.00069841939325
0
SPLINE
5
135
100
AcDbEntity
8
0
100
AcDbSpline
70
4
71
5
72
26
73
20
74
0
42
0.000000001
43
0.0000000001
44
0.0000000001
40
0
40
0
40
0
40
0
40
0
40
0
40
0.066666666666666666
40
0.13333333333333333
40
0.20000000000000001
40
0.26666666666666666
40
0.33333333333333331
40
0.40000000000000002
40
0.46666666666666662
40
0.53333333333333333
40
0.59999999999999998
40
0.66666666666666663
40
0.73333333333333295
40
0.79999999999999982
40
0.8666666666666667
40
0.93333333333333324
40
1
40
1
40
1
40
1
40
1
40
1
41
1
41
1
41
1
41
1
41
1
41
1
41
1
41
1
41
1
41
1
41
1
41
1
41
1
41
1
41
1
41
1
41
1
41
1
41
1
41
1
10
-34.000001028180115
20
62.000000923872001
30
0
10
-33.85400608245746
20
61.91582049759117
30
0
10
-33.561298139680034
20
61.757563367820822
30
0
10
-33.120082039191573
20
61.550488766350284
30
0
10
-32.527454433640735
20
61.335452880973136
30
0
10
-31.78011952410408
20
61.169864213665193
30
0
10
-31.028635786868541
20
61.107102091710317
30
0
10
-30.278116254393311
20
61.142584798461506
30
0
10
-29.537491832263679
20
61.264683961456825
30
0
10
-28.820588389156686
20
61.451749091682863
30
0
10
-28.147567310772139
20
61.668015552238209
30
0
10
-27.542325626377533
20
61.869168950753526
30
0
10
-27.029602953999898
20
62.008358421334009
30
0
10
-26.631908748033446
20
62.04214533256178
30
0
10
-26.366471553321897
20
61.936228909721287
30
0
10
-26.24091005902304
20
61.673056939863685
30
0
10
-26.253177475922136
20
61.332385104166534
30
0
10
-26.325001880814625
20
61.003947247609901
30
0
10
-26.400513097849331
20
60.752813221043461
30
0
10
-26.445175987659681
20
60.619202016676006
30
0
0
SPLINE
5
136
100
AcDbEntity
8
0
100
AcDbSpline
70
4
71
5
72
26
73
20
74
0
42
0.000000001
43
0.0000000001
44
0.0000000001
40
0
40
0
40
0
40
0
40
0
40
0
40
0.066666666666666666
40
0.13333333333333333
40
0.20000000000000001
40
0.26666666666666666
40
0.33333333333333331
40
0.40000000000000002
40
0.46666666666666662
40
0.53333333333333333
40
0.59999999999999998
40
0.66666666666666663
40
0.73333333333333295
40
0.79999999999999982
40
0.8666666666666667
40
0.93333333333333324
40
1
40
1
40
1
40
1
40
1
40
1
41
1
41
1
41
1
41
1
41
1
41
1
41
1
41
1
41
1
41
1
41
1
41
1
41
1
41
1
41
1
41
1
41
1
41
1
41
1
41
1
10
-26.445175987659681
20
60.619202016676006
30
0
10
-26.355760825915702
20
60.582889210988426
30
0
10
-26.179294797092858
20
60.526838258117586
30
0
10
-25.921685823728534
20
60.492477445493762
30
0
10
-25.592515035584071
20
60.546890117660553
30
0
10
-25.202708087358864
20
60.77874696935929
30
0
10
-24.827294828391441
20
61.158378322540742
30
0
10
-24.449849096680762
20
61.644537523245191
30
0
10
-24.04502994631941
20
62.170864858826675
30
0
10
-23.584023413374148
20
62.660800187070642
30
0
10
-23.038614726150762
20
63.038202456258468
30
0
10
-22.385920901655286
20
63.239576146871705
30
0
10
-21.61335281071565
20
63.226497548990146
30
0
10
-20.715758508720601
20
62.979265385601842
30
0
10
-19.692826342513335
20
62.490991884417184
30
0
10
-18.546975217503647
20
61.76273455075961
30
0
10
-17.534660418157646
20
60.991998255770241
30
0
10
-16.722934618982283
20
60.310421565983781
30
0
10
-16.158624254792755
20
59.810359389162464
30
0
10
-15.870679081779466
20
59.548908807578812
30
0
0
SPLINE
5
137
100
AcDbEntity
8
0
100
AcDbSpline
70
4
71
5
72
36
73
30
74
0
42
0.000000001
43
0.0000000001
44
0.0000000001
40
0
40
0
40
0
40
0
40
0
40
0
40
0.040000000000000001
40
0.080000000000000002
40
0.12
40
0.16
40
0.20000000000000001
40
0.23999999999999999
40
0.28000000000000003
40
0.32000000000000001
40
0.35999999999999999
40
0.40000000000000002
40
0.44
40
0.47999999999999993
40
0.51999999999999991
40
0.56000000000000005
40
0.59999999999999998
40
0.64000000000000001
40
0.68000000000000005
40
0.72000000000000008
40
0.76000000000000023
40
0.80000000000000016
40
0.8400000000000003
40
0.88000000000000023
40
0.92000000000000004
40
0.96000000000000041
40
1
40
1
40
1
40
1
40
1
40
1
41
1
41
1
41
1
41
1
41
1
41
1
41
1
41
1
41
1
41
1
41
1
41
1
41
1
41
1
41
1
41
1
41
1
41
1
41
1
41
1
41
1
41
1
41
1
41
1
41
1
41
1
41
1
41
1
41
1
41
1
10
-15.870679081779466
20
59.548908807578812
30
0
10
-16.003089834555286
20
59.806286521952465
30
0
10
-16.235643749217825
20
60.312738562145292
30
0
10
-16.487666328379117
20
61.04750463248871
30
0
10
-16.629622366789427
20
61.977254498924623
30
0
10
-16.491063398759486
20
63.059074086994542
30
0
10
-16.064991069222359
20
64.070764545828709
30
0
10
-15.411002528928357
20
65.033382265836494
30
0
10
-14.6365994858321
20
65.984456311950922
30
0
10
-13.876320830305673
20
66.971253416692036
30
0
10
-13.258316284054189
20
68.039942083945718
30
0
10
-12.876905488069605
20
69.226656338021769
30
0
10
-12.758240353495946
20
70.546445131322713
30
0
10
-12.840577332223218
20
71.98656267300909
30
0
10
-13.012185957741593
20
73.516798579787164
30
0
10
-13.139695607613193
20
75.096971675473085
30
0
10
-13.100800660019535
20
76.685584187786034
30
0
10
-12.812816478329276
20
78.24738393074901
30
0
10
-12.269433448042895
20
79.762800290447458
30
0
10
-11.528552736805784
20
81.226188797036855
30
0
10
-10.688920021244693
20
82.641518437204724
30
0
10
-9.8710954072389896
20
84.019053624036374
30
0
10
-9.1970864053458534
20
85.371739796951971
30
0
10
-8.7703607752880508
20
86.71173410830832
30
0
10
-8.6563077685844103
20
88.047009624430061
30
0
10
-8.8915547857292516
20
89.382324203786595
30
0
10
-9.3719285181029637
20
90.452481436366668
30
0
10
-9.8980669820692828
20
91.256515530962176
30
0
10
-10.322347605698081
20
91.793165870448021
30
0
10
-10.552868400705142
20
92.061647951572482
30
0
0
LINE
5
138
100
AcDbEntity
8
0
100
AcDbLine
10
3.1129080000039977
20
102.19295783987064
30
0
11
-1.363636471416152
21
69.364965049456387
31
0
0
SPLINE
5
139
100
AcDbEntity
8
0
100
AcDbSpline
70
4
71
5
72
31
73
25
74
0
42
0.000000001
43
0.0000000001
44
0.0000000001
40
0
40
0
40
0
40
0
40
0
40
0
40
0.050000000000000003
40
0.10000000000000001
40
0.15000000000000002
40
0.20000000000000001
40
0.25
40
0.29999999999999999
40
0.34999999999999998
40
0.40000000000000002
40
0.45000000000000001
40
0.5
40
0.54999999999999993
40
0.59999999999999998
40
0.65000000000000002
40
0.70000000000000007
40
0.75000000000000022
40
0.80000000000000016
40
0.8500000000000002
40
0.90000000000000024
40
0.9500000000000004
40
1
40
1
40
1
40
1
40
1
40
1
41
1
41
1
41
1
41
1
41
1
41
1
41
1
41
1
41
1
41
1
41
1
41
1
41
1
41
1
41
1
41
1
41
1
41
1
41
1
41
1
41
1
41
1
41
1
41
1
41
1
10
-1.3636364714161522
20
69.364965049456387
30
0
10
-1.1154983476490976
20
69.278223920468804
30
0
10
-0.63110613071787125
20
69.120258709135669
30
0
10
0.059828800632550923
20
68.929863652423492
30
0
10
0.90948880442792035
20
68.769475092949136
30
0
10
1.8539674243627413
20
68.722838271778159
30
0
10
2.6892515289330094
20
68.820001758158028
30
0
10
3.4342355854421092
20
69.038126686307621
30
0
10
4.1237854955831477
20
69.334815251902157
30
0
10
4.810127970627871
20
69.646441913319322
30
0
10
5.5489568099428874
20
69.905561858800397
30
0
10
6.3887547687569723
20
70.054292259364729
30
0
10
7.3573978012219632
20
70.061109449902688
30
0
10
8.453583654093622
20
69.931539047428544
30
0
10
9.6566283752797837
20
69.695576524761677
30
0
10
10.933042133652675
20
69.399174451459658
30
0
10
12.244235988887894
20
69.094250407835716
30
0
10
13.552965613805146
20
68.830313347547261
30
0
10
14.831663503476172
20
68.643537012859227
30
0
10
16.063418205601359
20
68.555645375158392
30
0
10
17.238659395390449
20
68.578523567703542
30
0
10
18.130384861012825
20
68.68916503330756
30
0
10
18.771526720800896
20
68.824361520508262
30
0
10
19.186716369058693
20
68.937602733839867
30
0
10
19.391251532440808
20
69.000001028180108
30
0
0
SPLINE
5
140
100
AcDbEntity
8
0
100
AcDbSpline
70
4
71
5
72
66
73
60
74
0
42
0.000000001
43
0.0000000001
44
0.0000000001
40
0
40
0
40
0
40
0
40
0
40
0
40
0.018181818181818181
40
0.036363636363636362
40
0.054545454545454543
40
0.072727272727272724
40
0.090909090909090912
40
0.1090909090909091
40
0.12727272727272729
40
0.14545454545454548
40
0.16363636363636366
40
0.18181818181818185
40
0.20000000000000004
40
0.21818181818181825
40
0.23636363636363639
40
0.25454545454545457
40
0.27272727272727282
40
0.29090909090909089
40
0.30909090909090914
40
0.32727272727272733
40
0.34545454545454551
40
0.3636363636363637
40
0.38181818181818172
40
0.40000000000000008
40
0.41818181818181832
40
0.43636363636363651
40
0.45454545454545459
40
0.47272727272727277
40
0.49090909090909102
40
0.50909090909090915
40
0.52727272727272745
40
0.54545454545454553
40
0.56363636363636371
40
0.5818181818181819
40
0.60000000000000009
40
0.61818181818181828
40
0.63636363636363646
40
0.65454545454545465
40
0.67272727272727284
40
0.69090909090909103
40
0.70909090909090922
40
0.7272727272727274
40
0.74545454545454559
40
0.76363636363636378
40
0.78181818181818175
40
0.80000000000000016
40
0.81818181818181823
40
0.83636363636363653
40
0.85454545454545472
40
0.87272727272727302
40
0.89090909090909121
40
0.90909090909090917
40
0.92727272727272725
40
0.94545454545454555
40
0.96363636363636385
40
0.98181818181818203
40
1
40
1
40
1
40
1
40
1
40
1
41
1
41
1
41
1
41
1
41
1
41
1
41
1
41
1
41
1
41
1
41
1
41
1
41
1
41
1
41
1
41
1
41
1
41
1
41
1
41
1
41
1
41
1
41
1
41
1
41
1
41
1
41
1
41
1
41
1
41
1
41
1
41
1
41
1
41
1
41
1
41
1
41
1
41
1
41
1
41
1
41
1
41
1
41
1
41
1
41
1
41
1
41
1
41
1
41
1
41
1
41
1
41
1
41
1
41
1
41
1
41
1
41
1
41
1
41
1
41
1
10
3.1129080000039977
20
102.19295783987064
30
0
10
3.1520602423327349
20
102.44109874827188
30
0
10
3.2418279764665803
20
102.9087049924815
30
0
10
3.4108697807887411
20
103.52408100195888
30
0
10
3.7050723457057089
20
104.17248053641124
30
0
10
4.1861674324600928
20
104.70576157045869
30
0
10
4.7761147138653035
20
104.99269814459645
30
0
10
5.4657774844851481
20
105.09388194982472
30
0
10
6.2393461858629484
20
105.11563509112692
30
0
10
7.0748389503054243
20
105.18788975738408
30
0
10
7.945572707186277
20
105.42487909340394
30
0
10
8.821454032545013
20
105.89333995112773
30
0
10
9.6700093852685107
20
106.57295423801388
30
0
10
10.458458989286335
20
107.33328208347531
30
0
10
11.16100516188634
20
107.9929716734847
30
0
10
11.766100923481433
20
108.371554265592
30
0
10
12.282503890804474
20
108.33881161226572
30
0
10
12.748884083859211
20
107.87784430343709
30
0
10
13.231441933780847
20
107.09806910891878
30
0
10
13.804045464043641
20
106.17294852551339
30
0
10
14.531642752028251
20
105.2937199624636
30
0
10
15.454304782882549
20
104.62132457156144
30
0
10
16.566142404637766
20
104.22783799963845
30
0
10
17.815820693036972
20
104.08775548945108
30
0
10
19.12765549992622
20
104.11749475692125
30
0
10
20.41668574483877
20
104.20093929451824
30
0
10
21.606719646893641
20
104.22145709256938
30
0
10
22.64587256521628
20
104.08916368433431
30
0
10
23.526210275808378
20
103.77496818591057
30
0
10
24.292501834000291
20
103.32730045524961
30
0
10
25.015471261085089
20
102.83286631810043
30
0
10
25.769866546270677
20
102.38505129590692
30
0
10
26.612791312639999
20
102.05255717608786
30
0
10
27.556805041764232
20
101.84025501820005
30
0
10
28.562749033199527
20
101.67963027558031
30
0
10
29.566970741556354
20
101.47085431682292
30
0
10
30.50094927422716
20
101.11350879721513
30
0
10
31.313294088017418
20
100.54075924478238
30
0
10
31.992306720030435
20
99.754686524783139
30
0
10
32.583858184414041
20
98.853755931644287
30
0
10
33.164687103434204
20
97.98629745991181
30
0
10
33.820074602806343
20
97.311252802953305
30
0
10
34.61953493421084
20
96.955583879878446
30
0
10
35.594108485641264
20
96.974433676877482
30
0
10
36.71078917066032
20
97.306238723060844
30
0
10
37.893033223426102
20
97.809446213464284
30
0
10
39.043753707221683
20
98.303639148249317
30
0
10
40.067875381289532
20
98.609865712369128
30
0
10
40.89389368714513
20
98.589223969830073
30
0
10
41.498696977072555
20
98.187170286998963
30
0
10
41.922600282777225
20
97.460638959524317
30
0
10
42.244175859096849
20
96.53451257747551
30
0
10
42.560252749970068
20
95.567217539083899
30
0
10
42.96559238901331
20
94.715653508696988
30
0
10
43.528652926296083
20
94.093502908634491
30
0
10
44.288770373857183
20
93.766064961252837
30
0
10
45.070428212103302
20
93.766361035686145
30
0
10
45.757087599125299
20
93.918743248317028
30
0
10
46.259476356407269
20
94.087939682291122
30
0
10
46.52182408650215
20
94.189438936422533
30
0
0
LINE
5
141
100
AcDbEntity
8
0
100
AcDbLine
10
46.52182408650215
20
94.189438936422533
30
0
11
43.136363767250224
21
72.52249290149426
31
0
0
SPLINE
5
142
100
AcDbEntity
8
0
100
AcDbSpline
70
4
71
5
72
46
73
40
74
0
42
0.000000001
43
0.0000000001
44
0.0000000001
40
0
40
0
40
0
40
0
40
0
40
0
40
0.028571428571428567
40
0.057142857142857134
40
0.085714285714285715
40
0.11428571428571427
40
0.14285714285714285
40
0.17142857142857146
40
0.20000000000000001
40
0.22857142857142851
40
0.25714285714285717
40
0.2857142857142857
40
0.31428571428571433
40
0.34285714285714292
40
0.3714285714285715
40
0.40000000000000008
40
0.42857142857142871
40
0.4571428571428573
40
0.48571428571428582
40
0.51428571428571435
40
0.54285714285714293
40
0.57142857142857151
40
0.60000000000000009
40
0.62857142857142867
40
0.65714285714285725
40
0.68571428571428583
40
0.71428571428571441
40
0.74285714285714299
40
0.77142857142857135
40
0.80000000000000016
40
0.82857142857142863
40
0.85714285714285732
40
0.8857142857142859
40
0.91428571428571459
40
0.94285714285714284
40
0.97142857142857164
40
1
40
1
40
1
40
1
40
1
40
1
41
1
41
1
41
1
41
1
41
1
41
1
41
1
41
1
41
1
41
1
41
1
41
1
41
1
41
1
41
1
41
1
41
1
41
1
41
1
41
1
41
1
41
1
41
1
41
1
41
1
41
1
41
1
41
1
41
1
41
1
41
1
41
1
41
1
41
1
41
1
41
1
41
1
41
1
41
1
41
1
10
40.824403850149274
20
78.58935971783724
30
0
10
40.925434186344241
20
78.54953213768168
30
0
10
41.12349616219413
20
78.445740142255502
30
0
10
41.408593250832226
20
78.217640852154432
30
0
10
41.764697203566755
20
77.768500090532982
30
0
10
42.168314917736247
20
76.968428088103536
30
0
10
42.526293942285271
20
75.940905181101186
30
0
10
42.830672723880724
20
74.709620228725541
30
0
10
43.068216883112747
20
73.316101398883021
30
0
10
43.221378533675221
20
71.815935298744549
30
0
10
43.269576199187405
20
70.273767917588899
30
0
10
43.190361201106775
20
68.758807583192947
30
0
10
42.960611407147617
20
67.340151327825822
30
0
10
42.557767339969992
20
66.082206867147889
30
0
10
41.960959150080477
20
65.040014988438926
30
0
10
41.152536637544728
20
64.254625281214174
30
0
10
40.124590657179972
20
63.748301097428339
30
0
10
38.884776286005177
20
63.520053898331682
30
0
10
37.463260136099336
20
63.540064919484692
30
0
10
35.917603596023156
20
63.746298993121506
30
0
10
34.34294409302705
20
64.035287721006441
30
0
10
32.864043160357582
20
64.272937189253526
30
0
10
31.60515300046432
20
64.330048182077661
30
0
10
30.666492809533409
20
64.11023556833284
30
0
10
30.096047757616571
20
63.583717918254493
30
0
10
29.86743394793541
20
62.812850386341523
30
0
10
29.843493140297443
20
61.99745076904685
30
0
10
29.830136870387211
20
61.394815201468084
30
0
10
29.642995494112654
20
61.223275116113413
30
0
10
29.18357199475809
20
61.549199692991863
30
0
10
28.461154513358764
20
62.260494886319293
30
0
10
27.547166712130839
20
63.146816481903763
30
0
10
26.547122721610499
20
63.952182109423234
30
0
10
25.566744761589447
20
64.436384531249033
30
0
10
24.677801824854587
20
64.438123029685784
30
0
10
23.922053379917291
20
63.864222952234343
30
0
10
23.440487394162389
20
62.90857709618578
30
0
10
23.151368156853515
20
61.906648830623361
30
0
10
22.990609048238664
20
61.112102780201987
30
0
10
22.918225964468771
20
60.683181832156741
30
0
0
SPLINE
5
143
100
AcDbEntity
8
0
100
AcDbSpline
70
4
71
5
72
31
73
25
74
0
42
0.000000001
43
0.0000000001
44
0.0000000001
40
0
40
0
40
0
40
0
40
0
40
0
40
0.050000000000000003
40
0.10000000000000001
40
0.15000000000000002
40
0.20000000000000001
40
0.25
40
0.29999999999999999
40
0.34999999999999998
40
0.40000000000000002
40
0.45000000000000001
40
0.5
40
0.54999999999999993
40
0.59999999999999998
40
0.65000000000000002
40
0.70000000000000007
40
0.75000000000000022
40
0.80000000000000016
40
0.8500000000000002
40
0.90000000000000024
40
0.9500000000000004
40
1
40
1
40
1
40
1
40
1
40
1
41
1
41
1
41
1
41
1
41
1
41
1
41
1
41
1
41
1
41
1
41
1
41
1
41
1
41
1
41
1
41
1
41
1
41
1
41
1
41
1
41
1
41
1
41
1
41
1
41
1
10
30.999999865889549
20
79.000001177191734
30
0
10
31.207082627900967
20
78.79835198308065
30
0
10
31.609133864776187
20
78.391264169936292
30
0
10
32.175868109897216
20
77.769263591872033
30
0
10
32.858529843678504
20
76.917103952785624
30
0
10
33.587488948897914
20
75.815985822599018
30
0
10
34.186907274517004
20
74.686406206532496
30
0
10
34.648857276715361
20
73.543955583159843
30
0
10
34.962227430525857
20
72.41590338621684
30
0
10
35.112794584886686
20
71.343446693296912
30
0
10
35.082299327589361
20
70.387712316218838
30
0
10
34.85232174249618
20
69.620343693088131
30
0
10
34.41192155469718
20
69.102750001885738
30
0
10
33.763515172446994
20
68.870572925761877
30
0
10
32.932032358127124
20
68.910597668438086
30
0
10
31.9657897161329
20
69.156659314953373
30
0
10
30.925165506753572
20
69.513131906697652
30
0
10
29.874241768150807
20
69.871707437015374
30
0
10
28.872043029590447
20
70.129296486674718
30
0
10
27.962531355739397
20
70.208120825671728
30
0
10
27.169484059597679
20
70.066424384062287
30
0
10
26.636902802833227
20
69.761477109604868
30
0
10
26.295838246535101
20
69.423189521008709
30
0
10
26.094305571526228
20
69.14914925410271
30
0
10
25.999999791383747
20
69.000001028180108
30
0
0
SPLINE
5
144
100
AcDbEntity
8
0
100
AcDbSpline
70
4
71
5
72
26
73
20
74
0
42
0.000000001
43
0.0000000001
44
0.0000000001
40
0
40
0
40
0
40
0
40
0
40
0
40
0.066666666666666666
40
0.13333333333333333
40
0.20000000000000001
40
0.26666666666666666
40
0.33333333333333331
40
0.40000000000000002
40
0.46666666666666662
40
0.53333333333333333
40
0.59999999999999998
40
0.66666666666666663
40
0.73333333333333295
40
0.79999999999999982
40
0.8666666666666667
40
0.93333333333333324
40
1
40
1
40
1
40
1
40
1
40
1
41
1
41
1
41
1
41
1
41
1
41
1
41
1
41
1
41
1
41
1
41
1
41
1
41
1
41
1
41
1
41
1
41
1
41
1
41
1
41
1
10
22.918225964468771
20
60.683181832156741
30
0
10
22.853217061608571
20
60.792812317253144
30
0
10
22.729733568225431
20
61.012851145640042
30
0
10
22.564110987903444
20
61.34524268974193
30
0
10
22.382773603584752
20
61.793134405592355
30
0
10
22.223396225236872
20
62.359690398820021
30
0
10
22.132754441102666
20
62.929152991610678
30
0
10
22.111228472864411
20
63.493505066445707
30
0
10
22.157080089307719
20
64.039074508610398
30
0
10
22.264790967887336
20
64.54436615227425
30
0
10
22.42431787388217
20
64.97967712435775
30
0
10
22.623551756532674
20
65.312116493863755
30
0
10
22.850065207872809
20
65.510034449562738
30
0
10
23.092831554136414
20
65.547453114600074
30
0
10
23.344217833154932
20
65.410469585178134
30
0
10
23.599774545975762
20
65.095117994860971
30
0
10
23.805747912936411
20
64.70106010691913
30
0
10
23.960749106088137
20
64.327159264750094
30
0
10
24.064312457136985
20
64.043315794202982
30
0
10
24.116151481958632
20
63.892750118493367
30
0
0
SPLINE
5
145
100
AcDbEntity
8
0
100
AcDbSpline
70
4
71
5
72
26
73
20
74
0
42
0.000000001
43
0.0000000001
44
0.0000000001
40
0
40
0
40
0
40
0
40
0
40
0
40
0.066666666666666666
40
0.13333333333333333
40
0.20000000000000001
40
0.26666666666666666
40
0.33333333333333331
40
0.40000000000000002
40
0.46666666666666662
40
0.53333333333333333
40
0.59999999999999998
40
0.66666666666666663
40
0.73333333333333295
40
0.79999999999999982
40
0.8666666666666667
40
0.93333333333333324
40
1
40
1
40
1
40
1
40
1
40
1
41
1
41
1
41
1
41
1
41
1
41
1
41
1
41
1
41
1
41
1
41
1
41
1
41
1
41
1
41
1
41
1
41
1
41
1
41
1
41
1
10
22.918225964468771
20
65.495596812517192
30
0
10
22.866607260329054
20
65.597547817718592
30
0
10
22.773541029975966
20
65.793626843043171
30
0
10
22.66445493678761
20
66.064276633173762
30
0
10
22.580479434921447
20
66.377862493273099
30
0
10
22.579526473302714
20
66.689647389393542
30
0
10
22.68260037011548
20
66.9206387437996
30
0
10
22.885823641985393
20
67.072627989170087
30
0
10
23.178856135003937
20
67.151563333852536
30
0
10
23.541670274161632
20
67.169781350791652
30
0
10
23.948096503289968
20
67.143670860106042
30
0
10
24.369265291095239
20
67.091430597807985
30
0
10
24.776949824128391
20
67.03094631666329
30
0
10
25.146542261270536
20
66.977921676105865
30
0
10
25.46105409949627
20
66.943453321680451
30
0
10
25.712324237908938
20
66.933262115238932
30
0
10
25.860383320724498
20
66.946462004514785
30
0
10
25.941679184546693
20
66.96853162201721
30
0
10
25.982747618369682
20
66.988616045735483
30
0
10
25.999999791383747
20
67.0000009983778
30
0
0
SPLINE
5
146
100
AcDbEntity
8
0
100
AcDbSpline
70
4
71
5
72
31
73
25
74
0
42
0.000000001
43
0.0000000001
44
0.0000000001
40
0
40
0
40
0
40
0
40
0
40
0
40
0.050000000000000003
40
0.10000000000000001
40
0.15000000000000002
40
0.20000000000000001
40
0.25
40
0.29999999999999999
40
0.34999999999999998
40
0.40000000000000002
40
0.45000000000000001
40
0.5
40
0.54999999999999993
40
0.59999999999999998
40
0.65000000000000002
40
0.70000000000000007
40
0.75000000000000022
40
0.80000000000000016
40
0.8500000000000002
40
0.90000000000000024
40
0.9500000000000004
40
1
40
1
40
1
40
1
40
1
40
1
41
1
41
1
41
1
41
1
41
1
41
1
41
1
41
1
41
1
41
1
41
1
41
1
41
1
41
1
41
1
41
1
41
1
41
1
41
1
41
1
41
1
41
1
41
1
41
1
41
1
10
24.999999776482586
20
68.000001013278961
30
0
10
24.885251729896986
20
68.140666128618903
30
0
10
24.662317506867431
20
68.401263003983303
30
0
10
24.347601711110833
20
68.729958430966292
30
0
10
23.96751305736462
20
69.043309948009551
30
0
10
23.557529852941567
20
69.227578770818241
30
0
10
23.208726219184392
20
69.211971281277783
30
0
10
22.911834430730238
20
69.015838125750918
30
0
10
22.650059533891831
20
68.675594279589703
30
0
10
22.396647770529651
20
68.250490180787139
30
0
10
22.12226197889105
20
67.810128759843082
30
0
10
21.802294531762829
20
67.422178978893058
30
0
10
21.424452471088603
20
67.139801659913132
30
0
10
20.996007872773159
20
66.989605981761841
30
0
10
20.552729812806284
20
66.957181852301318
30
0
10
20.149116555835992
20
66.999276216101279
30
0
10
19.846479257300047
20
67.058768872206898
30
0
10
19.702919046751909
20
67.077169628422666
30
0
10
19.76001816988402
20
67.010680355811729
30
0
10
20.041277203877673
20
66.833077387350031
30
0
10
20.558344475982508
20
66.529855700754609
30
0
10
21.163276392698602
20
66.182185661648077
30
0
10
21.724184627229427
20
65.861933237476251
30
0
10
22.145575183043285
20
65.62209801565335
30
0
10
22.368133578560947
20
65.495596812517192
30
0
0
SPLINE
5
147
100
AcDbEntity
8
0
100
AcDbSpline
70
4
71
5
72
21
73
15
74
0
42
0.000000001
43
0.0000000001
44
0.0000000001
40
0
40
0
40
0
40
0
40
0
40
0
40
0.10000000000000001
40
0.20000000000000001
40
0.30000000000000004
40
0.40000000000000002
40
0.5
40
0.59999999999999998
40
0.69999999999999996
40
0.79999999999999982
40
0.8999999999999998
40
1
40
1
40
1
40
1
40
1
40
1
41
1
41
1
41
1
41
1
41
1
41
1
41
1
41
1
41
1
41
1
41
1
41
1
41
1
41
1
41
1
10
19.809758771224629
20
67.059048083667179
30
0
10
19.746962348223231
20
66.982569495497003
30
0
10
19.62700713397313
20
66.827418627172818
30
0
10
19.463987506851836
20
66.58811113239102
30
0
10
19.28100830338596
20
66.255656552585108
30
0
10
19.113334575243528
20
65.816332696487279
30
0
10
19.011621996466765
20
65.351342310350745
30
0
10
18.98040431788532
20
64.85892123976717
30
0
10
19.020581394445575
20
64.33871933688971
30
0
10
19.127780813874434
20
63.792437976721786
30
0
10
19.296250116900975
20
63.222315532457003
30
0
10
19.475690511961762
20
62.748837735112211
30
0
10
19.633745621820481
20
62.384594964585219
30
0
10
19.749377340003335
20
62.13777348199379
30
0
10
19.809758771224629
20
62.013364435864979
30
0
0
SPLINE
5
148
100
AcDbEntity
8
0
100
AcDbSpline
70
4
71
5
72
21
73
15
74
0
42
0.000000001
43
0.0000000001
44
0.0000000001
40
0
40
0
40
0
40
0
40
0
40
0
40
0.10000000000000001
40
0.20000000000000001
40
0.30000000000000004
40
0.40000000000000002
40
0.5
40
0.59999999999999998
40
0.69999999999999996
40
0.79999999999999982
40
0.8999999999999998
40
1
40
1
40
1
40
1
40
1
40
1
41
1
41
1
41
1
41
1
41
1
41
1
41
1
41
1
41
1
41
1
41
1
41
1
41
1
41
1
41
1
10
19.809758771224629
20
62.013364435864979
30
0
10
19.812086771693028
20
62.155748829354607
30
0
10
19.820874396003681
20
62.43436412866231
30
0
10
19.846449898121744
20
62.833827812756347
30
0
10
19.905753464054481
20
63.328909792560083
30
0
10
20.024856102233738
20
63.880780868390872
30
0
10
20.193368386515132
20
64.359063037224658
30
0
10
20.41603136742463
20
64.756695153029384
30
0
10
20.696568327429819
20
65.068131896032611
30
0
10
21.034533465332199
20
65.29403722611687
30
0
10
21.426350929424768
20
65.439736885104963
30
0
10
21.779735901577926
20
65.496824850356006
30
0
10
22.065864901703147
20
65.508229751464782
30
0
10
22.265840273203775
20
65.502097062113108
30
0
10
22.368133578560947
20
65.495596812517192
30
0
0
LINE
5
149
100
AcDbEntity
8
0
100
AcDbLine
10
19.391251532440808
20
69.000001028180108
30
0
11
22.52969599460021
21
68.468053912698139
31
0
0
LINE
5
150
100
AcDbEntity
8
0
100
AcDbLine
10
56.049131485812474
20
93.529315278808923
30
0
11
52.513593549795281
21
68.734027470439131
31
0
0
SPLINE
5
151
100
AcDbEntity
8
0
100
AcDbSpline
70
4
71
5
72
81
73
75
74
0
42
0.000000001
43
0.0000000001
44
0.0000000001
40
0
40
0
40
0
40
0
40
0
40
0
40
0.014285714285714284
40
0.028571428571428567
40
0.042857142857142858
40
0.057142857142857134
40
0.071428571428571438
40
0.085714285714285715
40
0.10000000000000001
40
0.1142857142857143
40
0.12857142857142859
40
0.14285714285714288
40
0.15714285714285714
40
0.17142857142857146
40
0.18571428571428567
40
0.20000000000000004
40
0.21428571428571441
40
0.22857142857142865
40
0.24285714285714291
40
0.25714285714285717
40
0.27142857142857146
40
0.2857142857142857
40
0.30000000000000004
40
0.31428571428571433
40
0.32857142857142863
40
0.34285714285714292
40
0.35714285714285721
40
0.3714285714285715
40
0.38571428571428568
40
0.40000000000000008
40
0.41428571428571442
40
0.42857142857142871
40
0.44285714285714295
40
0.4571428571428573
40
0.47142857142857142
40
0.48571428571428582
40
0.50000000000000011
40
0.51428571428571435
40
0.52857142857142858
40
0.54285714285714282
40
0.55714285714285705
40
0.57142857142857129
40
0.58571428571428552
40
0.59999999999999976
40
0.61428571428571399
40
0.62857142857142823
40
0.64285714285714246
40
0.6571428571428567
40
0.67142857142857093
40
0.68571428571428517
40
0.6999999999999994
40
0.71428571428571364
40
0.72857142857142765
40
0.74285714285714211
40
0.75714285714285634
40
0.77142857142857058
40
0.78571428571428481
40
0.79999999999999905
40
0.81428571428571328
40
0.82857142857142752
40
0.84285714285714175
40
0.85714285714285599
40
0.87142857142857022
40
0.88571428571428445
40
0.89999999999999869
40
0.91428571428571281
40
0.92857142857142716
40
0.94285714285714117
40
0.95714285714285563
40
0.97142857142856964
40
0.98571428571428421
40
1
40
1
40
1
40
1
40
1
40
1
41
1
41
1
41
1
41
1
41
1
41
1
41
1
41
1
41
1
41
1
41
1
41
1
41
1
41
1
41
1
41
1
41
1
41
1
41
1
41
1
41
1
41
1
41
1
41
1
41
1
41
1
41
1
41
1
41
1
41
1
41
1
41
1
41
1
41
1
41
1
41
1
41
1
41
1
41
1
41
1
41
1
41
1
41
1
41
1
41
1
41
1
41
1
41
1
41
1
41
1
41
1
41
1
41
1
41
1
41
1
41
1
41
1
41
1
41
1
41
1
41
1
41
1
41
1
41
1
41
1
41
1
41
1
41
1
41
1
41
1
41
1
41
1
41
1
41
1
41
1
10
56.049131485812474
20
93.529315278808923
30
0
10
56.294284378219707
20
93.223098241136768
30
0
10
56.780034149855979
20
92.663206791528495
30
0
10
57.494990840539508
20
91.981009937238255
30
0
10
58.420920776536043
20
91.38669171270638
30
0
10
59.534270841216795
20
91.14258729599301
30
0
10
60.608180645882683
20
91.314178747207322
30
0
10
61.651987557514346
20
91.737983393782955
30
0
10
62.681296305879641
20
92.131795865313421
30
0
10
63.718549023662483
20
92.197010759882417
30
0
10
64.792464817554162
20
91.722597829505787
30
0
10
65.939904145407709
20
90.716426948646713
30
0
10
67.200018039956205
20
89.431993952659838
30
0
10
68.596107582125796
20
88.217510396937357
30
0
10
70.119562426248564
20
87.40306793399958
30
0
10
71.714454399784415
20
87.178765805679973
30
0
10
73.258158530517164
20
87.46170322288441
30
0
10
74.554877820553628
20
87.812846707060302
30
0
10
75.428026059848293
20
87.728056733908318
30
0
10
75.788997512092976
20
86.852116160165224
30
0
10
75.741607077085973
20
85.295015603697735
30
0
10
75.572155062101274
20
83.633472487835675
30
0
10
75.597997407724336
20
82.528204162074573
30
0
10
76.066567865163591
20
82.475915052574734
30
0
10
77.001464675709855
20
83.42344537904674
30
0
10
78.216757326810978
20
84.814540353807061
30
0
10
79.444454588118816
20
85.928780060426732
30
0
10
80.420446831656051
20
86.110175445823558
30
0
10
81.006396248315554
20
85.097409384682109
30
0
10
81.227378504004392
20
83.105482774094753
30
0
10
81.210250438052555
20
80.610088668913988
30
0
10
81.14686617020385
20
78.207241420385344
30
0
10
81.246860357884032
20
76.439694780866063
30
0
10
81.696077478375173
20
75.644528223227809
30
0
10
82.609526985632371
20
75.772611135542832
30
0
10
84.029279395633495
20
76.503277634761815
30
0
10
85.925552813974576
20
77.392622534258905
30
0
10
88.198202067387854
20
77.999424859319873
30
0
10
90.673951716514154
20
78.045469690926382
30
0
10
93.125983863994705
20
77.431858078278395
30
0
10
95.30487140779185
20
76.186170846585554
30
0
10
96.965685444872946
20
74.431629331188702
30
0
10
97.8971430253401
20
72.346924864453456
30
0
10
97.948868273198855
20
70.130967949392897
30
0
10
97.06205171515542
20
67.963617471870322
30
0
10
95.291335690137799
20
65.973914493733773
30
0
10
92.775077319662188
20
64.24825946672415
30
0
10
89.711669045577821
20
62.834004950845397
30
0
10
86.33364583441319
20
61.744757768771954
30
0
10
82.882736491043744
20
60.964896839034893
30
0
10
79.584678845123221
20
60.454393191787048
30
0
10
76.623792946056696
20
60.153435597796864
30
0
10
74.118384446331589
20
59.98716612017801
30
0
10
72.093860694811411
20
59.87020373184378
30
0
10
70.462035831560058
20
59.71164913215965
30
0
10
69.075847305471171
20
59.426224453440568
30
0
10
67.777837626992849
20
58.944782896466073
30
0
10
66.452767408939891
20
58.225495033225407
30
0
10
65.074373550532727
20
57.263819966636937
30
0
10
63.765688900970865
20
56.105594285797942
30
0
10
62.745167279119158
20
54.833675336164653
30
0
10
62.251588931308824
20
53.549747052191535
30
0
10
62.479876965133236
20
52.358503563588677
30
0
10
63.504298037352299
20
51.349326591890133
30
0
10
65.231580338095924
20
50.583704121491529
30
0
10
67.456236728267044
20
50.102007039545462
30
0
10
69.899359363221066
20
49.927168157609003
30
0
10
72.254217167822205
20
50.069576583063053
30
0
10
74.227864752435806
20
50.531363472590584
30
0
10
75.586912889289763
20
51.311096379249932
30
0
10
76.194435059550642
20
52.407812865508134
30
0
10
76.024383885807708
20
53.538158585348476
30
0
10
75.517906834379133
20
54.528013410148539
30
0
10
75.011878966189556
20
55.251048233951217
30
0
10
74.716771787983291
20
55.628348604704563
30
0
0
SPLINE
5
152
100
AcDbEntity
8
0
100
AcDbSpline
70
4
71
5
72
46
73
40
74
0
42
0.000000001
43
0.0000000001
44
0.0000000001
40
0
40
0
40
0
40
0
40
0
40
0
40
0.028571428571428567
40
0.057142857142857134
40
0.085714285714285715
40
0.11428571428571427
40
0.14285714285714285
40
0.17142857142857146
40
0.20000000000000001
40
0.22857142857142851
40
0.25714285714285717
40
0.2857142857142857
40
0.31428571428571433
40
0.34285714285714292
40
0.3714285714285715
40
0.40000000000000008
40
0.42857142857142871
40
0.4571428571428573
40
0.48571428571428582
40
0.51428571428571435
40
0.54285714285714293
40
0.57142857142857151
40
0.60000000000000009
40
0.62857142857142867
40
0.65714285714285725
40
0.68571428571428583
40
0.71428571428571441
40
0.74285714285714299
40
0.77142857142857135
40
0.80000000000000016
40
0.82857142857142863
40
0.85714285714285732
40
0.8857142857142859
40
0.91428571428571459
40
0.94285714285714284
40
0.97142857142857164
40
1
40
1
40
1
40
1
40
1
40
1
41
1
41
1
41
1
41
1
41
1
41
1
41
1
41
1
41
1
41
1
41
1
41
1
41
1
41
1
41
1
41
1
41
1
41
1
41
1
41
1
41
1
41
1
41
1
41
1
41
1
41
1
41
1
41
1
41
1
41
1
41
1
41
1
41
1
41
1
41
1
41
1
41
1
41
1
41
1
41
1
10
74.716771787983291
20
55.628348604704541
30
0
10
75.069637722126117
20
55.403034789396912
30
0
10
75.724402115964295
20
54.947615644134693
30
0
10
76.553646154539962
20
54.250112096345759
30
0
10
77.353094175044518
20
53.291321909912497
30
0
10
77.842529017110621
20
52.047954392977616
30
0
10
77.827659687184095
20
50.7694409490665
30
0
10
77.322744655960776
20
49.475499344415404
30
0
10
76.354590062053788
20
48.199564016096623
30
0
10
74.963090498326551
20
46.986504979397658
30
0
10
73.201617125245917
20
45.889979464938321
30
0
10
71.137615234020259
20
44.969978554849995
30
0
10
68.853163000540007
20
44.290281706161892
30
0
10
66.445872193114255
20
43.916063002404968
30
0
10
64.022179288739352
20
43.907212821623602
30
0
10
61.690359605228267
20
44.311377460310823
30
0
10
59.553763009212382
20
45.157174551838466
30
0
10
57.703717662585525
20
46.446809228787124
30
0
10
56.213003761233573
20
48.149652600448853
30
0
10
55.127643131511483
20
50.192843003201951
30
0
10
54.469455809953537
20
52.471080230795799
30
0
10
54.241130057327602
20
54.86099806333538
30
0
10
54.430206443643385
20
57.233645746737658
30
0
10
55.013534946952809
20
59.468100819003212
30
0
10
55.961036171012182
20
61.463663686421306
30
0
10
57.240626062709751
20
63.155205584972748
30
0
10
58.817029171186277
20
64.51323699783714
30
0
10
60.648192236730367
20
65.538103840682723
30
0
10
62.682396437530272
20
66.256289521518852
30
0
10
64.855028082803415
20
66.716026584462483
30
0
10
67.085329233265099
20
66.983385871585341
30
0
10
69.273264396633351
20
67.138258654190452
30
0
10
71.310234272256778
20
67.266390304057325
30
0
10
73.089182904018514
20
67.451711383483911
30
0
10
74.515482265249133
20
67.768157540747268
30
0
10
75.516324126498219
20
68.272594776587454
30
0
10
75.946538060259456
20
68.850333454654105
30
0
10
76.056072308580497
20
69.385559633606832
30
0
10
76.034461616780433
20
69.787643245594424
30
0
10
76
20
70
30
0
0
SPLINE
5
153
100
AcDbEntity
8
0
100
AcDbSpline
70
4
71
5
72
26
73
20
74
0
42
0.000000001
43
0.0000000001
44
0.0000000001
40
0
40
0
40
0
40
0
40
0
40
0
40
0.066666666666666666
40
0.13333333333333333
40
0.20000000000000001
40
0.26666666666666666
40
0.33333333333333331
40
0.40000000000000002
40
0.46666666666666662
40
0.53333333333333333
40
0.59999999999999998
40
0.66666666666666663
40
0.73333333333333295
40
0.79999999999999982
40
0.8666666666666667
40
0.93333333333333324
40
1
40
1
40
1
40
1
40
1
40
1
41
1
41
1
41
1
41
1
41
1
41
1
41
1
41
1
41
1
41
1
41
1
41
1
41
1
41
1
41
1
41
1
41
1
41
1
41
1
41
1
10
52.513593549795281
20
68.734027470439131
30
0
10
52.699275187219676
20
68.569641891019216
30
0
10
53.069695502926884
20
68.262049565021968
30
0
10
53.62249701628393
20
67.864198366712472
30
0
10
54.353867344594349
20
67.461721762463398
30
0
10
55.258715673677365
20
67.173878189191186
30
0
10
56.155054483452744
20
67.097097792791487
30
0
10
57.044941911329452
20
67.215191360321427
30
0
10
57.932272282336399
20
67.492066432239113
30
0
10
58.823165153139399
20
67.866453357990125
30
0
10
59.724851610599082
20
68.26427682633954
30
0
10
60.644723810191181
20
68.608619938498151
30
0
10
61.58939308525548
20
68.829489167447889
30
0
10
62.563460893331282
20
68.875825399650751
30
0
10
63.568986079982864
20
68.720966770870291
30
0
10
64.606544806682933
20
68.353374823964984
30
0
10
65.461965117384125
20
67.887856156960396
30
0
10
66.117545124095628
20
67.44346792239385
30
0
10
66.560781731897805
20
67.105186429517104
30
0
10
66.783945885965821
20
66.925539739304782
30
0
0
LINE
5
154
100
AcDbEntity
8
0
100
AcDbLine
10
25.999999791383747
20
69.000001028180108
30
0
11
24.999999776482586
21
68.000001013278961
31
0
0
LINE
5
155
100
AcDbEntity
8
0
100
AcDbLine
10
22.918225964468771
20
65.495596812517192
30
0
11
22.368133578560947
21
65.495596812517192
31
0
0
LINE
5
156
100
AcDbEntity
8
0
100
AcDbLine
10
-9.0000006556510908
20
102.00000151991844
30
0
11
-10.552868400705142
21
92.061647951572482
31
0
0
SPLINE
5
157
100
AcDbEntity
8
0
100
AcDbSpline
70
4
71
5
72
19
73
13
74
0
42
0.000000001
43
0.0000000001
44
0.0000000001
40
0.27076032589057653
40
0.27076032589057653
40
0.27076032589057653
40
0.27076032589057653
40
0.27076032589057653
40
0.27076032589057653
40
0.30000000000000004
40
0.40000000000000002
40
0.5
40
0.59999999999999998
40
0.69999999999999996
40
0.79999999999999982
40
0.8999999999999998
40
1
40
1
40
1
40
1
40
1
40
1
41
1
41
1
41
1
41
1
41
1
41
1
41
1
41
1
41
1
41
1
41
1
41
1
41
1
10
-35.932715344478787
20
60.549803488658902
30
0
10
-35.9429704395816
20
60.530095467718176
30
0
10
-35.98955369176683
20
60.443623133370714
30
0
10
-36.082093308297573
20
60.295273585266798
30
0
10
-36.241019195634337
20
60.095416665474403
30
0
10
-36.499299773612876
20
59.860786533182264
30
0
10
-36.872730699053939
20
59.624314088431952
30
0
10
-37.313897939485017
20
59.422223342393124
30
0
10
-37.816780167110522
20
59.251457980615427
30
0
10
-38.263986528113449
20
59.137636393281355
30
0
10
-38.622973745315193
20
59.064240215743283
30
0
10
-38.872607111180031
20
59.020541861967928
30
0
10
-39.000001102685921
20
59.00000087916851
30
0
0
SPLINE
5
158
100
AcDbEntity
8
0
100
AcDbSpline
70
4
71
5
72
23
73
17
74
0
42
0.000000001
43
0.0000000001
44
0.0000000001
40
0
40
0
40
0
40
0
40
0
40
0
40
0.066666666666666666
40
0.13333333333333333
40
0.20000000000000001
40
0.26666666666666666
40
0.33333333333333331
40
0.40000000000000002
40
0.46666666666666662
40
0.53333333333333333
40
0.59999999999999998
40
0.66666666666666663
40
0.73333333333333295
40
0.78094934094353496
40
0.78094934094353496
40
0.78094934094353496
40
0.78094934094353496
40
0.78094934094353496
40
0.78094934094353496
41
1
41
1
41
1
41
1
41
1
41
1
41
1
41
1
41
1
41
1
41
1
41
1
41
1
41
1
41
1
41
1
41
1
10
-51.977450530121502
20
94.329287198462183
30
0
10
-52.10380077348443
20
94.264585064785933
30
0
10
-52.353529827339862
20
94.149020734764562
30
0
10
-52.719208867532799
20
94.017195247627427
30
0
10
-53.188824299125784
20
93.925063407303583
30
0
10
-53.745733182279174
20
93.949943978513943
30
0
10
-54.273407862495439
20
94.110179316026702
30
0
10
-54.774665207674502
20
94.391437398993645
30
0
10
-55.255574263375003
20
94.763360973472288
30
0
10
-55.725952907230933
20
95.177185212168624
30
0
10
-56.197410866238116
20
95.575362570126998
30
0
10
-56.681858662276561
20
95.898943462836073
30
0
10
-57.160964409338639
20
96.083806860784335
30
0
10
-57.560036816057632
20
96.115695254212596
30
0
10
-57.864475631308622
20
96.072058600102821
30
0
10
-58.062017488778928
20
96.017057085103929
30
0
10
-58.1452454207421
20
95.989341570667577
30
0
0
LINE
5
159
100
AcDbEntity
8
0
100
AcDbLine
10
-85.10733522269355
20
67.993682881274609
30
0
11
-69.457596747937231
21
75.192271907448344
31
0
0
LINE
5
160
100
AcDbEntity
8
0
100
AcDbLine
10
-65.584948167792447
20
70.43350214072737
30
0
11
-65
21
70
31
0
0
LWPOLYLINE
5
161
100
AcDbEntity
8
0
100
AcDbPolyline
90
4
70
1
43
0.0
10
110
20
-75
10
110
20
80
10
118
20
80
10
118
20
-75
0
LWPOLYLINE
5
162
100
AcDbEntity
8
0
100
AcDbPolyline
90
4
70
1
43
0.0
10
125
20
80
10
133
20
80
10
133
20
-75
10
125
20
-75
0
LWPOLYLINE
5
163
100
AcDbEntity
8
0
100
AcDbPolyline
90
4
70
1
43
0.0
10
148
20
80
10
148
20
-75
10
140
20
-75
10
140
20
80
0
LWPOLYLINE
5
164
100
AcDbEntity
8
0
100
AcDbPolyline
90
4
70
1
43
0.0
10
163
20
-75
10
155
20
-75
10
155
20
80
10
163
20
80
0
LWPOLYLINE
5
165
100
AcDbEntity
8
0
100
AcDbPolyline
90
4
70
1
43
0.0
10
-95
20
-50
10
-70
20
-50
10
-70
20
-110
10
-95
20
-110
0
LWPOLYLINE
5
166
100
AcDbEntity
8
0
100
AcDbPolyline
90
20
70
1
43
0.0
10
-127.5
20
-300
10
102.5
20
-300
10
-127.5
20
-300
10
-127.5
20
-400
10
102.5
20
-400
10
102.5
20
-300
10
102.5
20
-200
10
102.5
20
-300
10
277.5
20
-300
10
277.5
20
-200
10
102.5
20
-200
10
-127.5
20
-200
10
-127.5
20
-300
10
-127.5
20
-200
10
102.5
20
-200
10
102.5
20
-150
10
-127.5
20
-150
10
-127.5
20
-200
10
-302.5
20
-200
10
-302.5
20
-300
0
CIRCLE
5
167
100
AcDbEntity
8
0
100
AcDbCircle
10
-241.50000000000003
20
-250
30
0
40
3.9999999999999858
210
0
220
0
230
1
0
CIRCLE
5
168
100
AcDbEntity
8
0
100
AcDbCircle
10
216.49999999999977
20
-250.00000141915777
30
0
40
3.9999999999999893
210
0
220
0
230
1
0
CIRCLE
5
169
100
AcDbEntity
8
0
100
AcDbCircle
10
12.500000000000021
20
-250.00000000000003
30
0
40
5
210
0
220
0
230
1
0
CIRCLE
5
170
100
AcDbEntity
8
0
100
AcDbCircle
10
62.5
20
-250
30
0
40
5
210
0
220
0
230
1
0
CIRCLE
5
171
100
AcDbEntity
8
0
100
AcDbCircle
10
-37.5
20
-250.00000000000003
30
0
40
5
210
0
220
0
230
1
0
CIRCLE
5
172
100
AcDbEntity
8
0
100
AcDbCircle
10
-85
20
-250
30
0
40
5
210
0
220
0
230
1
0
CIRCLE
5
173
100
AcDbEntity
8
0
100
AcDbCircle
10
-85
20
-175
30
0
40
5
210
0
220
0
230
1
0
CIRCLE
5
174
100
AcDbEntity
8
0
100
AcDbCircle
10
62.5
20
-175
30
0
40
5
210
0
220
0
230
1
0
CIRCLE
5
175
100
AcDbEntity
8
0
100
AcDbCircle
10
-37.5
20
-175.00000000000003
30
0
40
5
210
0
220
0
230
1
0
CIRCLE
5
176
100
AcDbEntity
8
0
100
AcDbCircle
10
12.500000000000021
20
-175.00000000000003
30
0
40
5
210
0
220
0
230
1
0
LWPOLYLINE
5
177
100
AcDbEntity
8
0
100
AcDbPolyline
90
4
70
1
43
0.0
10
-65
20
-50
10
-40
20
-50
10
-40
20
-110
10
-65
20
-110
0
LWPOLYLINE
5
178
100
AcDbEntity
8
0
100
AcDbPolyline
90
4
70
1
43
0.0
10
-35
20
-50
10
-10
20
-50
10
-10
20
-110
10
-35
20
-110
0
LWPOLYLINE
5
179
100
AcDbEntity
8
0
100
AcDbPolyline
90
4
70
1
43
0.0
10
-100
20
-50
10
-125
20
-50
10
-125
20
-110
10
-100
20
-110
0
LWPOLYLINE
5
180
100
AcDbEntity
8
0
100
AcDbPolyline
90
4
70
1
43
0.0
10
40
20
-50
10
58
20
-50
10
58
20
-80
10
40
20
-80
0
LWPOLYLINE
5
181
100
AcDbEntity
8
0
100
AcDbPolyline
90
4
70
1
43
0.0
10
16.000000238418579
20
-50.00000074505806
10
-1.9999997615814213
20
-50.00000074505806
10
-1.9999997615814213
20
-68.00000074505806
10
16.000000238418579
20
-68.00000074505806
0
LWPOLYLINE
5
182
100
AcDbEntity
8
0
100
AcDbPolyline
90
4
70
1
43
0.0
10
18.499999999999876
20
-95.000001415610313
42
1.0000001662665265
10
1.5000000000001235
20
-95.000001415610313
10
6.0000000000002469
20
-95.000001415453454
42
-1.0000003538830335
10
13.999999999999753
20
-95.000001415610313
0
LWPOLYLINE
5
183
100
AcDbEntity
8
0
100
AcDbPolyline
90
4
70
1
43
0.0
10
37.499999999999879
20
-95.000001415610313
42
1.0000001662665265
10
20.500000000000128
20
-95.000001415610313
10
25.000000000000249
20
-95.000001415453454
42
-1.0000003538830335
10
32.999999999999758
20
-95.000001415610313
0
LWPOLYLINE
5
184
100
AcDbEntity
8
0
100
AcDbPolyline
90
4
70
1
43
0.0
10
18.499999999999876
20
-105.00000141561031
42
1.0000001662665265
10
1.5000000000001235
20
-105.00000141561031
10
6.0000000000002469
20
-105.00000141545345
42
-1.0000003538830335
10
13.999999999999753
20
-105.00000141561031
0
LWPOLYLINE
5
185
100
AcDbEntity
8
0
100
AcDbPolyline
90
4
70
1
43
0.0
10
37.499999999999879
20
-105.00000141561031
42
1.0000001662665265
10
20.500000000000128
20
-105.00000141561031
10
25.000000000000249
20
-105.00000141545345
42
-1.0000003538830335
10
32.999999999999758
20
-105.00000141561031
0
LWPOLYLINE
5
186
100
AcDbEntity
8
0
100
AcDbPolyline
90
4
70
1
43
0.0
10
44.000000000000242
20
-105.00000141561031
10
39.500000000000114
20
-105.00000141659049
42
-1.0000001666000606
10
56.499999999999879
20
-105.00000141561031
10
51.999999999999751
20
-105.00000141561031
42
1.0000003538830335
0
LWPOLYLINE
5
187
100
AcDbEntity
8
0
100
AcDbPolyline
90
4
70
1
43
0.0
10
51.999999999999751
20
-95.000001415610313
42
1.0000003538830335
10
44.000000000000242
20
-95.000001415610313
10
39.500000000000114
20
-95.000001416590493
42
-1.0000001666000606
10
56.499999999999879
20
-95.000001415610313
0
LWPOLYLINE
5
188
100
AcDbEntity
8
0
100
AcDbPolyline
90
4
70
1
43
0.0
10
63.000000000000249
20
-95.000001415610313
10
58.500000000000121
20
-95.000001416590493
42
-1.0000001666000606
10
75.499999999999886
20
-95.000001415610313
10
70.999999999999758
20
-95.000001415610313
42
1.0000003538830335
0
LWPOLYLINE
5
189
100
AcDbEntity
8
0
100
AcDbPolyline
90
4
70
1
43
0.0
10
63.000000000000249
20
-105.00000141561031
10
58.500000000000121
20
-105.00000141659049
42
-1.0000001666000606
10
75.499999999999886
20
-105.00000141561031
10
70.999999999999758
20
-105.00000141561031
42
1.0000003538830335
0
CIRCLE
5
190
100
AcDbEntity
8
0
100
AcDbCircle
10
85.000001266598701
20
-90.000001341104507
30
0
40
8.5
210
0
220
0
230
1
0
CIRCLE
5
191
100
AcDbEntity
8
0
100
AcDbCircle
10
85.000001266598701
20
-90.000001341104507
30
0
40
3.7500000000000049
210
0
220
0
230
1
0
CIRCLE
5
192
100
AcDbEntity
8
0
100
AcDbCircle
10
109.90000163912774
20
-89.900001341104485
30
0
40
8.4999999999999982
210
0
220
0
230
1
0
LWPOLYLINE
5
193
100
AcDbEntity
8
0
100
AcDbPolyline
90
4
70
1
43
0.0
10
112.40000163912774
20
-88.300001341104505
10
107.40000163912774
20
-88.300001341104505
10
107.40000163912774
20
-91.500001341104507
10
112.40000163912774
20
-91.500001341104507
0
LWPOLYLINE
5
194
100
AcDbEntity
8
0
100
AcDbPolyline
90
4
70
1
43
0.0
10
193.50000201165676
20
-77.500001356005669
10
121.50000201165676
20
-77.500001356005654
10
121.50000201165676
20
-108.50000135600567
10
193.50000201165676
20
-108.50000135600567
0
CIRCLE
5
195
100
AcDbEntity
8
0
100
AcDbCircle
10
134.99735571630535
20
-93.000001356005669
30
0
40
9.5500000000000043
210
0
220
0
230
1
0
LWPOLYLINE
5
196
100
AcDbEntity
8
0
100
AcDbPolyline
90
4
70
1
43
0.0
10
121.51805255373189
20
-110.86841074806327
10
193.51805255373191
20
-110.86841074806327
10
193.51805255373191
20
-141.86841074806327
10
121.51805255373189
20
-141.86841074806327
0
CIRCLE
5
197
100
AcDbEntity
8
0
100
AcDbCircle
10
110.00000163912773
20
-110.00000163912773
30
0
40
8.4999999999999964
210
0
220
0
230
1
0
LWPOLYLINE
5
198
100
AcDbEntity
8
0
100
AcDbPolyline
90
4
70
1
43
0.0
10
112.45000163912775
20
-108.50000163912773
10
107.55000163912771
20
-108.50000163912773
10
107.55000163912771
20
-111.50000163912773
10
112.45000163912775
20
-111.50000163912773
0
CIRCLE
5
199
100
AcDbEntity
8
0
100
AcDbCircle
10
85.000001266598701
20
-110.00000134110451
30
0
40
8.5
210
0
220
0
230
1
0
CIRCLE
5
200
100
AcDbEntity
8
0
100
AcDbCircle
10
85.000001266598701
20
-110.00000134110451
30
0
40
3.7500000000000049
210
0
220
0
230
1
0
CIRCLE
5
201
100
AcDbEntity
8
0
100
AcDbCircle
10
85.000001266598701
20
-131.00000134110451
30
0
40
8.5
210
0
220
0
230
1
0
CIRCLE
5
202
100
AcDbEntity
8
0
100
AcDbCircle
10
85.000001266598701
20
-131.00000134110451
30
0
40
3.7500000000000049
210
0
220
0
230
1
0
LWPOLYLINE
5
203
100
AcDbEntity
8
0
100
AcDbPolyline
90
4
70
1
43
0.0
10
19.000000283122063
20
-50.00000074505806
10
37.000000283122063
20
-50.00000074505806
10
37.000000283122063
20
-80.00000074505806
10
19.000000283122063
20
-80.00000074505806
0
LWPOLYLINE
5
204
100
AcDbEntity
8
0
100
AcDbPolyline
90
4
70
1
43
0.0
10
60.000000894069672
20
-50.00000074505806
10
78.000000894069672
20
-50.00000074505806
10
78.000000894069672
20
-80.00000074505806
10
60.000000894069672
20
-80.00000074505806
0
LWPOLYLINE
5
205
100
AcDbEntity
8
0
100
AcDbPolyline
90
4
70
1
43
0.0
10
80.000001192092896
20
-50.00000074505806
10
98.000001192092896
20
-50.00000074505806
10
98.000001192092896
20
-80.00000074505806
10
80.000001192092896
20
-80.00000074505806
0
SPLINE
5
206
100
AcDbEntity
8
0
100
AcDbSpline
70
4
71
5
72
18
73
12
74
0
42
0.000000001
43
0.0000000001
44
0.0000000001
40
0
40
0
40
0
40
0
40
0
40
0
40
0.10000000000000001
40
0.20000000000000001
40
0.30000000000000004
40
0.40000000000000002
40
0.5
40
0.59999999999999998
40
0.60051909408671911
40
0.60051909408671911
40
0.60051909408671911
40
0.60051909408671911
40
0.60051909408671911
40
0.60051909408671911
41
1
41
1
41
1
41
1
41
1
41
1
41
1
41
1
41
1
41
1
41
1
41
1
10
-60.000001341104507
20
103.0000015348196
30
0
10
-60.059999162411899
20
102.8545648757088
30
0
10
-60.179273747365301
20
102.56989184267887
30
0
10
-60.356022516877289
20
102.16148258921137
30
0
10
-60.587289600325356
20
101.65475427934568
30
0
10
-60.868483083812635
20
101.08919221000049
30
0
10
-61.140894907793708
20
100.59914253943512
30
0
10
-61.351201221314312
20
100.27457641033899
30
0
10
-61.504068776051838
20
100.07344187998044
30
0
10
-61.603786056370694
20
99.958862804118979
30
0
10
-61.653197017148358
20
99.906384368073105
30
0
10
-61.653452166597013
20
99.906113494651947
30
0
0
ENDSEC
0
SECTION
2
OBJECTS
0
DICTIONARY
5
C
100
AcDbDictionary
3
ACAD_GROUP
350
D
3
ACAD_MLINESTYLE
350
17
0
DICTIONARY
5
D
100
AcDbDictionary
0
DICTIONARY
5
1A
330
C
100
AcDbDictionary
0
DICTIONARY
5
17
100
AcDbDictionary
0
ENDSEC
0
EOF
